<svg version="1.1" id="Layer_1" xmlns="http://www.w3.org/2000/svg" xmlns:xlink="http://www.w3.org/1999/xlink" x="0px" y="0px"
	 width="100%" viewBox="0 0 512 512" enable-background="new 0 0 512 512" xml:space="preserve">
<path fill="#FEFEFE" opacity="1.000000" stroke="none" 
	d="
M298.000000,513.000000 
	C198.690781,513.000000 99.881554,513.000000 1.036167,513.000000 
	C1.036167,342.399078 1.036167,171.798172 1.036167,1.098622 
	C171.559235,1.098622 342.118561,1.098622 512.838928,1.098622 
	C512.838928,171.666550 512.838928,342.333252 512.838928,513.000000 
	C441.464813,513.000000 369.982391,513.000000 298.000000,513.000000 
M166.353592,122.261505 
	C165.270523,121.969131 164.187454,121.676765 162.204468,121.152771 
	C157.893265,120.774048 153.448151,120.938263 149.296066,119.914307 
	C137.064865,116.897926 124.852982,113.719894 112.836105,109.958054 
	C107.912689,108.416817 106.496994,103.799637 108.451950,99.966911 
	C110.361763,96.222656 114.095741,95.342575 118.746895,97.258141 
	C122.737930,98.901840 126.760628,100.565010 130.910004,101.709488 
	C142.449188,104.892212 154.140030,107.234909 166.435608,107.018761 
	C166.435608,92.460167 167.041275,78.297829 166.288849,64.208008 
	C165.247833,44.713821 150.710373,29.705221 131.754501,27.225946 
	C112.788376,24.745331 94.771431,36.058662 88.626785,54.619270 
	C87.621292,57.656464 86.312584,58.696022 83.169136,58.955135 
	C68.974594,60.125195 57.273190,70.339783 53.594715,84.176926 
	C52.500935,88.291336 52.430115,91.768585 55.919445,95.043945 
	C58.297817,97.276474 60.668587,100.115295 61.642635,103.134697 
	C64.692589,112.589043 72.078079,117.724548 79.667618,122.838966 
	C81.738304,124.234352 83.754417,125.712807 85.766502,127.192680 
	C90.847054,130.929398 92.045830,134.717270 89.366013,138.462143 
	C86.709518,142.174438 82.452087,142.252090 77.553207,138.694626 
	C74.241112,136.289459 70.915764,133.902557 67.772270,131.634415 
	C65.283730,137.414169 63.294884,142.889175 60.604881,147.994736 
	C58.654251,151.696960 55.024170,152.856781 51.200672,150.674728 
	C47.452614,148.535736 46.701714,145.102356 48.398796,141.193298 
	C49.258625,139.212784 50.422813,137.358597 51.209812,135.353256 
	C55.766361,123.742775 53.369240,112.019783 45.043839,104.811691 
	C29.886768,113.431404 22.687086,132.134781 27.513563,149.732590 
	C28.029854,151.615051 27.910995,154.495255 26.798119,155.867599 
	C19.466164,164.908951 17.130949,174.959320 19.217255,186.317261 
	C19.555771,188.160156 18.954340,190.492752 18.040138,192.198502 
	C10.771657,205.760300 10.764073,219.191132 17.967684,232.796158 
	C18.996025,234.738327 19.404150,237.437241 19.046457,239.612808 
	C17.232388,250.646469 19.693075,260.365479 26.720978,269.101044 
	C27.778296,270.415283 28.167633,273.001495 27.706648,274.681122 
	C25.092625,284.205597 25.441616,293.464478 29.356142,302.537201 
	C34.028683,313.366760 42.411678,320.318024 53.017921,324.574646 
	C51.801914,345.677948 61.529709,362.299408 76.142296,363.894440 
	C76.142296,359.370209 76.077858,354.879364 76.153755,350.390900 
	C76.439095,333.517029 79.885674,317.355621 87.185127,302.079468 
	C87.615730,301.178223 88.027740,300.261047 88.543457,299.408813 
	C90.712219,295.824921 93.706322,294.218719 97.795151,295.988647 
	C101.557594,297.617310 102.801033,301.457245 101.121727,305.651428 
	C98.311081,312.671204 95.506798,319.693512 92.540802,327.112549 
	C97.504364,328.883820 101.372963,330.344513 105.293434,331.649323 
	C121.361649,336.997040 131.098816,329.138885 136.818878,316.129700 
	C138.258789,312.854919 138.506714,309.053162 139.279755,305.488678 
	C140.175171,301.359863 142.636642,298.994690 146.937698,299.124115 
	C150.732422,299.238312 153.436417,302.420563 153.259842,306.668335 
	C153.143036,309.477722 152.689499,312.313782 152.034943,315.053833 
	C146.116882,339.828003 125.308784,352.025330 100.913612,345.057343 
	C97.647079,344.124359 94.434380,343.002838 90.210861,341.653687 
	C90.210861,352.891754 90.165421,363.351624 90.271126,373.809998 
	C90.283669,375.050323 90.946724,376.386230 91.605743,377.502197 
	C99.102364,390.196472 110.160133,397.427979 124.951317,397.973206 
	C140.088821,398.531189 152.038162,392.364197 160.816528,379.147186 
	C161.144989,378.415344 161.473450,377.683502 162.199051,376.375244 
	C162.949600,374.448120 163.700150,372.521027 164.900879,370.199005 
	C164.992325,369.427124 165.083786,368.655273 165.528915,367.291687 
	C165.599014,366.843262 165.669113,366.394806 166.060165,365.657471 
	C166.036057,365.105957 166.011948,364.554413 166.202515,363.085266 
	C166.334351,344.990723 166.557709,326.896301 166.575119,308.801636 
	C166.597488,285.559570 166.454468,262.317352 166.721390,238.628738 
	C166.115479,238.281967 165.509567,237.935181 164.246368,237.884064 
	C159.856232,240.251740 155.582062,242.873367 151.054825,244.940903 
	C135.628143,251.986145 120.834358,248.831375 109.381790,236.262390 
	C107.488228,234.184219 105.666557,232.040543 103.523560,229.598877 
	C101.039551,232.315948 98.863342,234.801178 96.571373,237.174622 
	C94.146988,239.685181 91.496704,241.983688 89.146194,244.558426 
	C79.591141,255.024979 78.911751,260.050171 85.129845,272.761932 
	C87.007866,276.601196 86.132027,280.433105 82.682892,282.300995 
	C78.894081,284.352814 75.528961,283.497498 73.115730,279.953125 
	C68.559204,273.260803 66.423058,265.828094 67.181931,257.729706 
	C67.468933,254.666916 68.303215,251.655380 68.648010,249.866089 
	C60.058388,246.391022 51.880707,243.301865 43.899044,239.769760 
	C39.249954,237.712387 37.813717,233.754395 39.615311,230.032379 
	C41.530994,226.074677 45.453030,225.050659 50.268299,227.198608 
	C54.817451,229.227829 59.243633,231.692764 63.980495,233.106018 
	C72.415733,235.622696 80.387260,235.284988 86.461128,227.416656 
	C88.784714,224.406570 91.514763,221.632767 94.404427,219.153168 
	C100.605507,213.831985 107.303925,214.034683 113.226105,219.601761 
	C115.643997,221.874664 117.722755,224.506973 119.971893,226.961029 
	C126.992500,234.621262 135.466690,236.673981 144.798874,232.187424 
	C151.524887,228.953812 157.916840,224.991241 164.278030,221.062759 
	C165.491455,220.313385 166.467499,218.225830 166.522049,216.718353 
	C166.762909,210.064774 166.738480,203.394150 166.537048,196.737961 
	C166.494553,195.333450 165.677017,193.413116 164.579910,192.668503 
	C158.110886,188.277878 151.590103,183.928467 144.824463,180.019073 
	C136.791245,175.377274 128.161392,176.722931 121.486168,183.267578 
	C119.232887,185.476822 117.287735,187.997009 115.142258,190.320145 
	C107.850449,198.215744 100.347801,198.514923 92.635017,191.091156 
	C89.161118,187.747406 86.286400,183.654633 82.439941,180.867630 
	C79.739212,178.910782 75.911987,177.966492 72.489220,177.655746 
	C64.121544,176.896072 57.153214,181.313477 49.949429,184.710815 
	C45.529182,186.795410 41.664196,185.674133 39.721958,181.900589 
	C37.799927,178.166336 39.211285,174.354568 43.725311,172.100861 
	C48.332832,169.800476 52.936951,167.270355 57.831474,165.807449 
	C76.189568,160.320343 86.185402,162.865570 97.110176,175.182877 
	C99.140701,177.472229 101.312065,179.636642 102.553490,180.946274 
	C109.735428,175.534134 116.343109,170.647049 122.803322,165.572220 
	C123.631416,164.921722 124.023712,163.304047 124.056763,162.118790 
	C124.332649,152.226562 120.281578,144.695984 111.380608,140.121765 
	C108.177902,138.475891 105.756165,136.525360 105.931358,132.594833 
	C106.166100,127.328117 111.342064,124.441650 116.548927,126.951744 
	C131.465454,134.142593 138.200882,146.459946 138.360001,161.380310 
	C148.041489,166.383682 157.090469,171.060165 166.409988,175.876465 
	C166.355743,175.004166 166.291336,173.968582 166.455399,172.439606 
	C166.387695,172.271454 166.320007,172.103317 166.546692,171.044861 
	C166.451447,155.040283 166.356216,139.035706 166.353592,122.261505 
M362.325195,364.207764 
	C363.281738,365.296295 364.238251,366.384827 365.341827,367.640656 
	C360.713348,371.343262 361.890259,374.605072 365.204895,378.365753 
	C395.391205,412.614624 425.462067,446.965240 455.571228,481.282104 
	C461.495972,488.034790 463.979004,488.636627 471.985107,485.329926 
	C479.699341,491.540131 480.757965,491.469727 488.070038,484.219025 
	C490.909454,481.403503 493.718811,478.557495 496.570465,475.754486 
	C503.449707,468.992462 503.538818,467.123444 497.252594,460.121490 
	C500.692688,452.119904 500.060791,449.445709 493.489258,443.679962 
	C459.798187,414.119995 426.112549,384.553864 392.432526,354.981293 
	C385.841522,349.194061 385.856842,349.176605 379.273193,352.649902 
	C376.022461,349.642242 372.857788,346.714172 369.718628,343.809723 
	C402.069824,304.619141 395.037018,249.705566 360.490326,219.744827 
	C326.681519,190.423996 276.812073,190.523560 243.486679,220.134766 
	C210.439819,249.498520 204.072556,299.014465 228.813812,335.492340 
	C241.271393,353.859528 258.283325,366.240021 279.815948,371.681946 
	C307.017365,378.556488 332.229095,373.437897 355.761963,356.761292 
	C357.872986,359.179840 359.843781,361.437714 362.325195,364.207764 
M241.335083,131.762955 
	C241.919983,136.146317 239.469452,138.343430 235.859344,140.201431 
	C227.177673,144.669617 223.113388,152.086853 223.224045,161.760529 
	C223.239136,163.080170 223.756393,164.875214 224.698120,165.625549 
	C231.128036,170.748550 237.733627,175.651031 244.795181,181.013962 
	C246.773407,178.914429 249.580048,175.893707 252.432419,172.916794 
	C259.279633,165.770660 267.341644,162.487854 277.524933,163.287750 
	C286.308075,163.977661 293.912903,167.354645 301.567932,171.003799 
	C308.460907,174.289719 309.366699,176.386703 307.284393,183.474823 
	C314.098999,184.478317 320.915466,185.482101 327.909271,186.511993 
	C330.448425,175.044281 327.830353,165.205200 320.862701,156.243881 
	C319.782684,154.854813 319.441010,152.512726 319.543427,150.654663 
	C319.843506,145.211884 321.366577,139.721527 320.917419,134.375229 
	C319.823303,121.351212 313.318695,111.387177 302.082367,104.460220 
	C294.139893,112.997314 292.020630,122.430130 295.328369,132.999878 
	C296.264832,135.992325 298.508240,138.682846 298.953461,141.689346 
	C299.335968,144.272675 298.869568,148.081314 297.197205,149.561707 
	C295.506714,151.058121 291.640228,151.120361 289.168488,150.365417 
	C287.395142,149.823776 285.980408,147.069077 285.053833,145.010040 
	C283.113434,140.698059 281.600800,136.193573 279.801575,131.477341 
	C276.048676,134.195450 272.584137,136.771713 269.049438,139.247818 
	C264.648499,142.330750 260.609192,142.022339 258.049744,138.511276 
	C255.503860,135.018845 256.447418,131.065094 260.776550,127.851250 
	C266.524139,123.584404 272.396088,119.484215 278.115814,115.181099 
	C279.512360,114.130440 280.734131,112.701416 281.675598,111.217522 
	C285.396240,105.353218 289.093964,99.466576 292.530975,93.434845 
	C293.569946,91.611504 294.463715,89.192795 294.191559,87.216522 
	C292.113953,72.129410 279.465332,60.197399 264.275696,58.937588 
	C261.220581,58.684204 259.776062,57.847542 258.745148,54.699570 
	C252.589066,35.902142 234.062943,24.374249 215.212219,27.259474 
	C195.129700,30.333237 180.965424,46.673920 180.818130,67.074608 
	C180.731537,79.069023 180.792053,91.064590 180.817932,103.059578 
	C180.820663,104.320992 181.036804,105.581955 181.148590,106.785622 
	C194.224167,107.572342 214.662399,103.251572 229.085556,97.268852 
	C231.293289,96.353088 234.921158,96.568199 236.806564,97.853195 
	C238.483047,98.995804 239.840714,102.761803 239.193207,104.623573 
	C238.346741,107.057312 235.727966,109.775978 233.278687,110.591797 
	C223.683487,113.787827 213.952698,116.728691 204.081467,118.894600 
	C196.551849,120.546738 188.734314,120.886757 181.225616,121.788773 
	C181.225616,140.001953 181.225616,157.999069 181.225616,175.751556 
	C190.379883,171.026276 199.297821,166.422974 208.992493,161.418732 
	C208.994553,161.375656 209.003906,159.885544 209.145538,158.408127 
	C210.507050,144.206284 217.346893,133.659119 230.184570,127.225868 
	C235.292191,124.666321 238.155853,125.727715 241.335083,131.762955 
M189.166977,241.349030 
	C186.611923,239.891846 184.056870,238.434677 181.021820,236.703751 
	C180.925171,238.449173 180.810806,239.553497 180.810562,240.657852 
	C180.801987,279.788788 180.729767,318.919891 180.832169,358.050568 
	C180.895081,382.088043 200.724167,400.135681 224.702805,397.880127 
	C238.325699,396.598724 248.477158,389.623138 255.713501,377.637939 
	C240.344009,369.576080 228.110550,358.767029 218.291595,345.194855 
	C217.641983,344.296906 216.590622,343.632050 215.618393,343.033875 
	C203.664368,335.678406 196.991974,324.828796 194.482208,311.210968 
	C193.152740,303.997467 193.881775,302.360168 200.321030,298.391632 
	C198.647827,281.433594 200.401291,264.716278 206.564453,249.111160 
	C200.683151,246.529739 195.238174,244.139816 189.166977,241.349030 
M260.933868,192.322342 
	C271.880219,189.101547 282.826599,185.880737 293.558624,182.722992 
	C290.718231,181.533203 287.457367,179.801483 283.986969,178.785217 
	C275.151947,176.197998 266.887207,176.345230 260.652893,184.650238 
	C258.862488,187.035294 256.741119,189.204529 254.580276,191.272934 
	C247.221405,198.317032 239.784317,198.165970 232.756668,190.863083 
	C230.564743,188.585327 228.628357,186.061325 226.431961,183.788254 
	C219.617996,176.736313 210.882584,175.390579 202.321106,180.102066 
	C199.408493,181.704910 196.816589,183.990219 193.782730,185.255157 
	C182.761566,189.850403 179.549164,197.747864 180.414871,209.509781 
	C180.975739,217.129883 182.351746,222.266342 189.632507,225.347778 
	C195.119461,227.669968 200.178406,230.997437 205.650055,233.363708 
	C210.099213,235.287781 213.672852,234.783630 216.861084,229.784088 
	C227.503021,213.096222 242.177643,200.811829 260.933868,192.322342 
z"/>
<path fill="#2E2E2E" opacity="1.000000" stroke="none" 
	d="
M164.450714,370.593903 
	C163.700150,372.521027 162.949600,374.448120 161.677261,376.748657 
	C160.861893,377.895782 160.568314,378.669495 160.274719,379.443207 
	C152.038162,392.364197 140.088821,398.531189 124.951317,397.973206 
	C110.160133,397.427979 99.102364,390.196472 91.605743,377.502197 
	C90.946724,376.386230 90.283669,375.050323 90.271126,373.809998 
	C90.165421,363.351624 90.210861,352.891754 90.210861,341.653687 
	C94.434380,343.002838 97.647079,344.124359 100.913612,345.057343 
	C125.308784,352.025330 146.116882,339.828003 152.034943,315.053833 
	C152.689499,312.313782 153.143036,309.477722 153.259842,306.668335 
	C153.436417,302.420563 150.732422,299.238312 146.937698,299.124115 
	C142.636642,298.994690 140.175171,301.359863 139.279755,305.488678 
	C138.506714,309.053162 138.258789,312.854919 136.818878,316.129700 
	C131.098816,329.138885 121.361649,336.997040 105.293434,331.649323 
	C101.372963,330.344513 97.504364,328.883820 92.540802,327.112549 
	C95.506798,319.693512 98.311081,312.671204 101.121727,305.651428 
	C102.801033,301.457245 101.557594,297.617310 97.795151,295.988647 
	C93.706322,294.218719 90.712219,295.824921 88.543457,299.408813 
	C88.027740,300.261047 87.615730,301.178223 87.185127,302.079468 
	C79.885674,317.355621 76.439095,333.517029 76.153755,350.390900 
	C76.077858,354.879364 76.142296,359.370209 76.142296,363.894440 
	C61.529709,362.299408 51.801914,345.677948 53.017921,324.574646 
	C42.411678,320.318024 34.028683,313.366760 29.356142,302.537201 
	C25.441616,293.464478 25.092625,284.205597 27.706648,274.681122 
	C28.167633,273.001495 27.778296,270.415283 26.720978,269.101044 
	C19.693075,260.365479 17.232388,250.646469 19.046457,239.612808 
	C19.404150,237.437241 18.996025,234.738327 17.967684,232.796158 
	C10.764073,219.191132 10.771657,205.760300 18.040138,192.198502 
	C18.954340,190.492752 19.555771,188.160156 19.217255,186.317261 
	C17.130949,174.959320 19.466164,164.908951 26.798119,155.867599 
	C27.910995,154.495255 28.029854,151.615051 27.513563,149.732590 
	C22.687086,132.134781 29.886768,113.431404 45.043839,104.811691 
	C53.369240,112.019783 55.766361,123.742775 51.209812,135.353256 
	C50.422813,137.358597 49.258625,139.212784 48.398796,141.193298 
	C46.701714,145.102356 47.452614,148.535736 51.200672,150.674728 
	C55.024170,152.856781 58.654251,151.696960 60.604881,147.994736 
	C63.294884,142.889175 65.283730,137.414169 67.772270,131.634415 
	C70.915764,133.902557 74.241112,136.289459 77.553207,138.694626 
	C82.452087,142.252090 86.709518,142.174438 89.366013,138.462143 
	C92.045830,134.717270 90.847054,130.929398 85.766502,127.192680 
	C83.754417,125.712807 81.738304,124.234352 79.667618,122.838966 
	C72.078079,117.724548 64.692589,112.589043 61.642635,103.134697 
	C60.668587,100.115295 58.297817,97.276474 55.919445,95.043945 
	C52.430115,91.768585 52.500935,88.291336 53.594715,84.176926 
	C57.273190,70.339783 68.974594,60.125195 83.169136,58.955135 
	C86.312584,58.696022 87.621292,57.656464 88.626785,54.619270 
	C94.771431,36.058662 112.788376,24.745331 131.754501,27.225946 
	C150.710373,29.705221 165.247833,44.713821 166.288849,64.208008 
	C167.041275,78.297829 166.435608,92.460167 166.435608,107.018761 
	C154.140030,107.234909 142.449188,104.892212 130.910004,101.709488 
	C126.760628,100.565010 122.737930,98.901840 118.746895,97.258141 
	C114.095741,95.342575 110.361763,96.222656 108.451950,99.966911 
	C106.496994,103.799637 107.912689,108.416817 112.836105,109.958054 
	C124.852982,113.719894 137.064865,116.897926 149.296066,119.914307 
	C153.448151,120.938263 157.893265,120.774048 162.339203,121.448608 
	C163.736282,122.173340 164.998627,122.602234 166.260986,123.031120 
	C166.356216,139.035706 166.451447,155.040283 166.206543,171.581436 
	C165.775436,172.224182 165.684509,172.330368 165.593567,172.436539 
	C165.804688,172.602036 166.015808,172.767517 166.226929,172.933014 
	C166.291336,173.968582 166.355743,175.004166 166.409988,175.876465 
	C157.090469,171.060165 148.041489,166.383682 138.360001,161.380310 
	C138.200882,146.459946 131.465454,134.142593 116.548927,126.951744 
	C111.342064,124.441650 106.166100,127.328117 105.931358,132.594833 
	C105.756165,136.525360 108.177902,138.475891 111.380608,140.121765 
	C120.281578,144.695984 124.332649,152.226562 124.056763,162.118790 
	C124.023712,163.304047 123.631416,164.921722 122.803322,165.572220 
	C116.343109,170.647049 109.735428,175.534134 102.553490,180.946274 
	C101.312065,179.636642 99.140701,177.472229 97.110176,175.182877 
	C86.185402,162.865570 76.189568,160.320343 57.831474,165.807449 
	C52.936951,167.270355 48.332832,169.800476 43.725311,172.100861 
	C39.211285,174.354568 37.799927,178.166336 39.721958,181.900589 
	C41.664196,185.674133 45.529182,186.795410 49.949429,184.710815 
	C57.153214,181.313477 64.121544,176.896072 72.489220,177.655746 
	C75.911987,177.966492 79.739212,178.910782 82.439941,180.867630 
	C86.286400,183.654633 89.161118,187.747406 92.635017,191.091156 
	C100.347801,198.514923 107.850449,198.215744 115.142258,190.320145 
	C117.287735,187.997009 119.232887,185.476822 121.486168,183.267578 
	C128.161392,176.722931 136.791245,175.377274 144.824463,180.019073 
	C151.590103,183.928467 158.110886,188.277878 164.579910,192.668503 
	C165.677017,193.413116 166.494553,195.333450 166.537048,196.737961 
	C166.738480,203.394150 166.762909,210.064774 166.522049,216.718353 
	C166.467499,218.225830 165.491455,220.313385 164.278030,221.062759 
	C157.916840,224.991241 151.524887,228.953812 144.798874,232.187424 
	C135.466690,236.673981 126.992500,234.621262 119.971893,226.961029 
	C117.722755,224.506973 115.643997,221.874664 113.226105,219.601761 
	C107.303925,214.034683 100.605507,213.831985 94.404427,219.153168 
	C91.514763,221.632767 88.784714,224.406570 86.461128,227.416656 
	C80.387260,235.284988 72.415733,235.622696 63.980495,233.106018 
	C59.243633,231.692764 54.817451,229.227829 50.268299,227.198608 
	C45.453030,225.050659 41.530994,226.074677 39.615311,230.032379 
	C37.813717,233.754395 39.249954,237.712387 43.899044,239.769760 
	C51.880707,243.301865 60.058388,246.391022 68.648010,249.866089 
	C68.303215,251.655380 67.468933,254.666916 67.181931,257.729706 
	C66.423058,265.828094 68.559204,273.260803 73.115730,279.953125 
	C75.528961,283.497498 78.894081,284.352814 82.682892,282.300995 
	C86.132027,280.433105 87.007866,276.601196 85.129845,272.761932 
	C78.911751,260.050171 79.591141,255.024979 89.146194,244.558426 
	C91.496704,241.983688 94.146988,239.685181 96.571373,237.174622 
	C98.863342,234.801178 101.039551,232.315948 103.523560,229.598877 
	C105.666557,232.040543 107.488228,234.184219 109.381790,236.262390 
	C120.834358,248.831375 135.628143,251.986145 151.054825,244.940903 
	C155.582062,242.873367 159.856232,240.251740 164.761353,238.039749 
	C165.645111,238.488678 166.013901,238.781937 166.382690,239.075180 
	C166.454468,262.317352 166.597488,285.559570 166.575119,308.801636 
	C166.557709,326.896301 166.334351,344.990723 165.881714,363.677521 
	C165.620346,364.828644 165.679779,365.387512 165.739212,365.946381 
	C165.669113,366.394806 165.599014,366.843262 165.096695,367.768372 
	C164.593216,369.028015 164.521957,369.810944 164.450714,370.593903 
z"/>
<path fill="#2F2F2F" opacity="1.000000" stroke="none" 
	d="
M362.069885,363.951691 
	C359.843781,361.437714 357.872986,359.179840 355.761963,356.761292 
	C332.229095,373.437897 307.017365,378.556488 279.815948,371.681946 
	C258.283325,366.240021 241.271393,353.859528 228.813812,335.492340 
	C204.072556,299.014465 210.439819,249.498520 243.486679,220.134766 
	C276.812073,190.523560 326.681519,190.423996 360.490326,219.744827 
	C395.037018,249.705566 402.069824,304.619141 369.718628,343.809723 
	C372.857788,346.714172 376.022461,349.642242 379.273193,352.649902 
	C385.856842,349.176605 385.841522,349.194061 392.432526,354.981293 
	C426.112549,384.553864 459.798187,414.119995 493.489258,443.679962 
	C500.060791,449.445709 500.692688,452.119904 497.252594,460.121490 
	C503.538818,467.123444 503.449707,468.992462 496.570465,475.754486 
	C493.718811,478.557495 490.909454,481.403503 488.070038,484.219025 
	C480.757965,491.469727 479.699341,491.540131 471.985107,485.329926 
	C463.979004,488.636627 461.495972,488.034790 455.571228,481.282104 
	C425.462067,446.965240 395.391205,412.614624 365.204895,378.365753 
	C361.890259,374.605072 360.713348,371.343262 365.341827,367.640656 
	C364.238251,366.384827 363.281738,365.296295 362.069885,363.951691 
M364.124298,326.571564 
	C382.862579,296.903809 379.288696,259.206238 355.435455,234.921127 
	C330.704529,209.742432 292.980438,204.967758 263.376862,223.269333 
	C234.084641,241.378464 220.760681,277.347137 232.259720,309.853394 
	C242.288483,338.203369 262.769440,355.400635 292.586487,359.341064 
	C322.429901,363.284973 346.250031,351.677032 364.124298,326.571564 
z"/>
<path fill="#2E2E2E" opacity="1.000000" stroke="none" 
	d="
M241.246155,131.360443 
	C238.155853,125.727715 235.292191,124.666321 230.184570,127.225868 
	C217.346893,133.659119 210.507050,144.206284 209.145538,158.408127 
	C209.003906,159.885544 208.994553,161.375656 208.992493,161.418732 
	C199.297821,166.422974 190.379883,171.026276 181.225616,175.751556 
	C181.225616,157.999069 181.225616,140.001953 181.225616,121.788773 
	C188.734314,120.886757 196.551849,120.546738 204.081467,118.894600 
	C213.952698,116.728691 223.683487,113.787827 233.278687,110.591797 
	C235.727966,109.775978 238.346741,107.057312 239.193207,104.623573 
	C239.840714,102.761803 238.483047,98.995804 236.806564,97.853195 
	C234.921158,96.568199 231.293289,96.353088 229.085556,97.268852 
	C214.662399,103.251572 194.224167,107.572342 181.148590,106.785622 
	C181.036804,105.581955 180.820663,104.320992 180.817932,103.059578 
	C180.792053,91.064590 180.731537,79.069023 180.818130,67.074608 
	C180.965424,46.673920 195.129700,30.333237 215.212219,27.259474 
	C234.062943,24.374249 252.589066,35.902142 258.745148,54.699570 
	C259.776062,57.847542 261.220581,58.684204 264.275696,58.937588 
	C279.465332,60.197399 292.113953,72.129410 294.191559,87.216522 
	C294.463715,89.192795 293.569946,91.611504 292.530975,93.434845 
	C289.093964,99.466576 285.396240,105.353218 281.675598,111.217522 
	C280.734131,112.701416 279.512360,114.130440 278.115814,115.181099 
	C272.396088,119.484215 266.524139,123.584404 260.776550,127.851250 
	C256.447418,131.065094 255.503860,135.018845 258.049744,138.511276 
	C260.609192,142.022339 264.648499,142.330750 269.049438,139.247818 
	C272.584137,136.771713 276.048676,134.195450 279.801575,131.477341 
	C281.600800,136.193573 283.113434,140.698059 285.053833,145.010040 
	C285.980408,147.069077 287.395142,149.823776 289.168488,150.365417 
	C291.640228,151.120361 295.506714,151.058121 297.197205,149.561707 
	C298.869568,148.081314 299.335968,144.272675 298.953461,141.689346 
	C298.508240,138.682846 296.264832,135.992325 295.328369,132.999878 
	C292.020630,122.430130 294.139893,112.997314 302.082367,104.460220 
	C313.318695,111.387177 319.823303,121.351212 320.917419,134.375229 
	C321.366577,139.721527 319.843506,145.211884 319.543427,150.654663 
	C319.441010,152.512726 319.782684,154.854813 320.862701,156.243881 
	C327.830353,165.205200 330.448425,175.044281 327.909271,186.511993 
	C320.915466,185.482101 314.098999,184.478317 307.284393,183.474823 
	C309.366699,176.386703 308.460907,174.289719 301.567932,171.003799 
	C293.912903,167.354645 286.308075,163.977661 277.524933,163.287750 
	C267.341644,162.487854 259.279633,165.770660 252.432419,172.916794 
	C249.580048,175.893707 246.773407,178.914429 244.795181,181.013962 
	C237.733627,175.651031 231.128036,170.748550 224.698120,165.625549 
	C223.756393,164.875214 223.239136,163.080170 223.224045,161.760529 
	C223.113388,152.086853 227.177673,144.669617 235.859344,140.201431 
	C239.469452,138.343430 241.919983,136.146317 241.246155,131.360443 
z"/>
<path fill="#2E2E2E" opacity="1.000000" stroke="none" 
	d="
M189.480072,241.549469 
	C195.238174,244.139816 200.683151,246.529739 206.564453,249.111160 
	C200.401291,264.716278 198.647827,281.433594 200.321030,298.391632 
	C193.881775,302.360168 193.152740,303.997467 194.482208,311.210968 
	C196.991974,324.828796 203.664368,335.678406 215.618393,343.033875 
	C216.590622,343.632050 217.641983,344.296906 218.291595,345.194855 
	C228.110550,358.767029 240.344009,369.576080 255.713501,377.637939 
	C248.477158,389.623138 238.325699,396.598724 224.702805,397.880127 
	C200.724167,400.135681 180.895081,382.088043 180.832169,358.050568 
	C180.729767,318.919891 180.801987,279.788788 180.810562,240.657852 
	C180.810806,239.553497 180.925171,238.449173 181.021820,236.703751 
	C184.056870,238.434677 186.611923,239.891846 189.480072,241.549469 
z"/>
<path fill="#2F2F2F" opacity="1.000000" stroke="none" 
	d="
M260.605164,192.507034 
	C242.177643,200.811829 227.503021,213.096222 216.861084,229.784088 
	C213.672852,234.783630 210.099213,235.287781 205.650055,233.363708 
	C200.178406,230.997437 195.119461,227.669968 189.632507,225.347778 
	C182.351746,222.266342 180.975739,217.129883 180.414871,209.509781 
	C179.549164,197.747864 182.761566,189.850403 193.782730,185.255157 
	C196.816589,183.990219 199.408493,181.704910 202.321106,180.102066 
	C210.882584,175.390579 219.617996,176.736313 226.431961,183.788254 
	C228.628357,186.061325 230.564743,188.585327 232.756668,190.863083 
	C239.784317,198.165970 247.221405,198.317032 254.580276,191.272934 
	C256.741119,189.204529 258.862488,187.035294 260.652893,184.650238 
	C266.887207,176.345230 275.151947,176.197998 283.986969,178.785217 
	C287.457367,179.801483 290.718231,181.533203 293.558624,182.722992 
	C282.826599,185.880737 271.880219,189.101547 260.605164,192.507034 
z"/>
<path fill="#212121" opacity="1.000000" stroke="none" 
	d="
M166.307281,122.646317 
	C164.998627,122.602234 163.736282,122.173340 162.789154,121.564423 
	C164.187454,121.676765 165.270523,121.969131 166.307281,122.646317 
z"/>
<path fill="#555555" opacity="1.000000" stroke="none" 
	d="
M166.552032,238.851959 
	C166.013901,238.781937 165.645111,238.488678 165.089996,237.891922 
	C165.509567,237.935181 166.115479,238.281967 166.552032,238.851959 
z"/>
<path fill="#555555" opacity="1.000000" stroke="none" 
	d="
M165.899689,365.801941 
	C165.679779,365.387512 165.620346,364.828644 165.774384,364.136353 
	C166.011948,364.554413 166.036057,365.105957 165.899689,365.801941 
z"/>
<path fill="#555555" opacity="1.000000" stroke="none" 
	d="
M164.675797,370.396454 
	C164.521957,369.810944 164.593216,369.028015 164.919861,368.064209 
	C165.083786,368.655273 164.992325,369.427124 164.675797,370.396454 
z"/>
<path fill="#555555" opacity="1.000000" stroke="none" 
	d="
M160.545624,379.295197 
	C160.568314,378.669495 160.861893,377.895782 161.478683,377.036865 
	C161.473450,377.683502 161.144989,378.415344 160.545624,379.295197 
z"/>
<path fill="#212121" opacity="1.000000" stroke="none" 
	d="
M166.341156,172.686310 
	C166.015808,172.767517 165.804688,172.602036 165.593567,172.436539 
	C165.684509,172.330368 165.775436,172.224182 166.059357,172.026611 
	C166.320007,172.103317 166.387695,172.271454 166.341156,172.686310 
z"/>
<path fill="#FEFEFE" opacity="1.000000" stroke="none" 
	d="
M363.940643,326.881775 
	C346.250031,351.677032 322.429901,363.284973 292.586487,359.341064 
	C262.769440,355.400635 242.288483,338.203369 232.259720,309.853394 
	C220.760681,277.347137 234.084641,241.378464 263.376862,223.269333 
	C292.980438,204.967758 330.704529,209.742432 355.435455,234.921127 
	C379.288696,259.206238 382.862579,296.903809 363.940643,326.881775 
z"/>
</svg>