<svg id="Layer_1" data-name="Layer 1" xmlns="http://www.w3.org/2000/svg" viewBox="0 0 466.89 470.15"><defs><style>.cls-1{fill:#414042;fill-rule:evenodd;}</style></defs><path class="cls-1" d="M115.27,85.14H351.74a30,30,0,0,1,29.89,30L381.75,355a30.18,30.18,0,0,1-30,30.13H115.27a30.11,30.11,0,0,1-30-30.13V115.15a30,30,0,0,1,30-30ZM60.48,393a9.56,9.56,0,0,1,9.43,9.54A9.43,9.43,0,1,1,60.48,393Zm345.92,0a9.48,9.48,0,0,1,9.43,9.54A9.43,9.43,0,1,1,406.4,393ZM60.48,48.74a9.56,9.56,0,0,1,9.43,9.53,9.43,9.43,0,1,1-9.43-9.53Zm345.92,0a9.48,9.48,0,0,1,9.43,9.53,9.43,9.43,0,0,1-18.85,0,9.48,9.48,0,0,1,9.42-9.53Zm-342.54-17h4.07v-.93c0-2.9,1.86-5.46,4.19-5.46h.58V0h4.88V25.36h.58c2.33,0,4.19,2.56,4.19,5.46v.93h4.07v-.93c0-2.9,2-5.46,4.31-5.46h.58V0h5V25.36h.58c2.21,0,4.07,2.56,4.07,5.46v.93H105v-.93c0-2.9,2-5.46,4.31-5.46h.58V0h5V25.36h.46c2.33,0,4.19,2.56,4.19,5.46v.93h4.07v-.93c0-2.9,2-5.46,4.31-5.46h.58V0h5V25.36H134c2.45,0,4.19,2.56,4.19,5.46v.93h4.07v-.93c0-2.9,2.1-5.46,4.31-5.46h.58V0H152V25.36h.58c2.45,0,4.31,2.56,4.31,5.46v.93H161v-.93c0-2.9,1.86-5.46,4.3-5.46h.47V0h4.88V25.36h.58c2.45,0,4.31,2.56,4.31,5.46v.93h4.07v-.93c0-2.9,1.86-5.46,4.3-5.46h.47V0h4.88V25.36h.59c2.32,0,4.3,2.56,4.3,5.46v.93h4.07v-.93c0-2.9,1.86-5.46,4.3-5.46h.59V0h4.76V25.36h.59c2.32,0,4.3,2.56,4.3,5.46v.93h4.07v-.93c0-2.9,1.86-5.46,4.3-5.46h.47V0h5V25.36h.58c2.21,0,4.19,2.56,4.19,5.46v.93h4.07v-.93c0-2.9,1.86-5.46,4.19-5.46h.58V0h5V25.36h.58c2.21,0,4.19,2.56,4.19,5.46v.93H254v-.93c0-2.9,1.86-5.46,4.19-5.46h.58V0h5V25.36h.58c2.33,0,4.07,2.56,4.07,5.46v.93h4.08v-.93c0-2.9,2.09-5.46,4.3-5.46h.58V0h5V25.36H283c2.33,0,4.19,2.56,4.19,5.46v.93h4.07v-.93c0-2.9,2-5.46,4.31-5.46H296V0h5V25.36h.47c2.44,0,4.3,2.56,4.3,5.46v.93h4.07v-.93c0-2.9,2-5.46,4.31-5.46h.46V0h5V25.36h.47c2.44,0,4.3,2.56,4.3,5.46v.93h4.07v-.93c0-2.9,1.87-5.46,4.31-5.46h.46V0h4.89V25.36h.58c2.44,0,4.3,2.56,4.3,5.46v.93h4.07v-.93c0-2.9,1.86-5.46,4.31-5.46H352V0h4.77V25.36h.58c2.44,0,4.3,2.56,4.3,5.46v.93h4.07v-.93c0-2.9,1.87-5.46,4.31-5.46h.58V0h4.88V25.36h.59c2.21,0,4.19,2.56,4.19,5.46v.93h4.06v-.93c0-2.9,1.87-5.46,4.31-5.46h.46V0h5V25.36h.58c2.21,0,4.18,2.56,4.18,5.46v.93h4.07v-.93c0-2.9,1.87-5.46,4.19-5.46h.58V0h5V25.36h.58c2.32,0,4.3,2.56,4.3,5.46v.93A19,19,0,0,1,436,50.83V51h.23c3,0,5.35,2,5.35,4.3v.58h25.36v5H441.53v.58c0,2.33-2.32,4.19-5.35,4.19H436v4.07h.23c3,0,5.35,2,5.35,4.31v.46h25.36v5H441.53V80c0,2.32-2.32,4.3-5.35,4.3H436V88.4h.23c3,0,5.35,1.86,5.35,4.3v.47h25.36v4.88H441.53v.58c0,2.33-2.32,4.31-5.35,4.31H436V107h.23c3,0,5.35,1.86,5.35,4.3v.47h25.36v4.88H441.53v.59c0,2.44-2.32,4.3-5.35,4.3H436v4.07h.23c3,0,5.35,2,5.35,4.3v.47h25.36v5H441.53v.47c0,2.44-2.32,4.3-5.35,4.3H436v4.07h.23c3,0,5.35,2,5.35,4.3v.59h25.36V154H441.53v.58c0,2.33-2.32,4.19-5.35,4.19H436v4.07h.23c3,0,5.35,2,5.35,4.31v.58h25.36v5H441.53v.58c0,2.21-2.32,4.19-5.35,4.19H436v4.07h.23c3,0,5.35,1.86,5.35,4.18v.59h25.36v5H441.53v.58c0,2.21-2.32,4.19-5.35,4.19H436v4.07h.23c3,0,5.35,1.86,5.35,4.3V205h25.36v5H441.53v.58c0,2.33-2.32,4.3-5.35,4.3H436v4.08h.23c3,0,5.35,1.86,5.35,4.18v.59h25.36v4.88H441.53v.58c0,2.33-2.32,4.3-5.35,4.3H436v4.08h.23c3,0,5.35,1.86,5.35,4.3v.46h25.36v4.89H441.53v.58c0,2.44-2.32,4.31-5.35,4.31H436v4.07h.23c3,0,5.35,2,5.35,4.3v.47h25.36v5H441.53v.46c0,2.44-2.32,4.31-5.35,4.31H436v4.07h.23c3,0,5.35,2,5.35,4.3v.58h25.36v4.89H441.53v.58c0,2.32-2.32,4.19-5.35,4.19H436v4.07h.23c3,0,5.35,2,5.35,4.3v.58h25.36v5H441.53v.58c0,2.22-2.32,4.19-5.35,4.19H436v4h.23c3,0,5.35,2,5.35,4.3v.58h25.36v5H441.53v.59c0,2.21-2.32,4.18-5.35,4.18H436v4.07h.23c3,0,5.35,1.87,5.35,4.31v.46h25.36v5H441.53V341c0,2.32-2.32,4.18-5.35,4.18H436v4.08h.23c3,0,5.35,2,5.35,4.3v.58h25.36v4.88H441.53v.59c0,2.44-2.32,4.3-5.35,4.3H436V368h.23c3,0,5.35,1.86,5.35,4.3v.47h25.36v4.88H441.53v.59c0,2.44-2.32,4.3-5.35,4.3H436v4.07h.23c3,0,5.35,2,5.35,4.31v.46h25.36v5H441.53v.47c0,2.44-2.32,4.3-5.35,4.3H436v4.07h.23c3,0,5.35,2,5.35,4.31v.58h25.36V415H441.53v.58c0,2.33-2.32,4.19-5.35,4.19H436a19,19,0,0,1-18.38,18.61v.93c0,3-2,5.47-4.3,5.47h-.58v25.36h-5V444.79h-.58c-2.32,0-4.19-2.44-4.19-5.47v-.93h-4.07v.93c0,3-2,5.47-4.18,5.47h-.58v25.36h-5V444.79h-.46c-2.44,0-4.31-2.44-4.31-5.47v-.93h-4.06v.93c0,3-2,5.47-4.19,5.47h-.59v25.36h-4.88V444.79H370c-2.44,0-4.31-2.44-4.31-5.47v-.93h-4.07v.93c0,3-1.86,5.47-4.3,5.47h-.58v25.36H352V444.79h-.58c-2.45,0-4.31-2.44-4.31-5.47v-.93H343v.93c0,3-1.86,5.47-4.3,5.47h-.58v25.36h-4.89V444.79h-.46c-2.44,0-4.31-2.44-4.31-5.47v-.93H324.4v.93c0,3-1.86,5.47-4.3,5.47h-.47v25.36h-5V444.79h-.46c-2.33,0-4.31-2.44-4.31-5.47v-.93h-4.07v.93c0,3-1.86,5.47-4.3,5.47H301v25.36h-5V444.79h-.46c-2.33,0-4.31-2.44-4.31-5.47v-.93h-4.07v.93c0,3-1.86,5.47-4.19,5.47h-.58v25.36h-5V444.79h-.58c-2.21,0-4.3-2.44-4.3-5.47v-.93h-4.08v.93c0,3-1.74,5.47-4.07,5.47h-.58v25.36h-5V444.79h-.58c-2.33,0-4.19-2.44-4.19-5.47v-.93H250v.93c0,3-2,5.47-4.19,5.47h-.58v25.36h-5V444.79h-.58c-2.33,0-4.19-2.44-4.19-5.47v-.93h-4.07v.93c0,3-2,5.47-4.19,5.47h-.58v25.36h-5V444.79h-.47c-2.44,0-4.3-2.44-4.3-5.47v-.93h-4.07v.93c0,3-2,5.47-4.3,5.47h-.59v25.36h-4.76V444.79h-.59c-2.44,0-4.3-2.44-4.3-5.47v-.93h-4.07v.93c0,3-2,5.47-4.3,5.47h-.59v25.36h-4.88V444.79h-.47c-2.44,0-4.3-2.44-4.3-5.47v-.93h-4.07v.93c0,3-2,5.47-4.31,5.47h-.58v25.36h-4.88V444.79h-.47c-2.44,0-4.3-2.44-4.3-5.47v-.93h-4.07v.93c0,3-1.86,5.47-4.31,5.47H152v25.36h-4.88V444.79h-.58c-2.21,0-4.31-2.44-4.31-5.47v-.93h-4.07v.93c0,3-1.74,5.47-4.19,5.47h-.46v25.36h-5V444.79H128c-2.33,0-4.31-2.44-4.31-5.47v-.93h-4.07v.93c0,3-1.86,5.47-4.19,5.47h-.46v25.36h-5V444.79h-.58c-2.33,0-4.31-2.44-4.31-5.47v-.93H101v.93c0,3-1.86,5.47-4.07,5.47h-.58v25.36h-5V444.79h-.58c-2.33,0-4.31-2.44-4.31-5.47v-.93H82.35v.93c0,3-1.86,5.47-4.19,5.47h-.58v25.36H72.7V444.79h-.58c-2.33,0-4.19-2.44-4.19-5.47v-.93H63.86v.93c0,3-2,5.47-4.31,5.47H59v25.36H54V444.79H53.5c-2.32,0-4.18-2.44-4.18-5.47v-.93a18.87,18.87,0,0,1-18.26-18.84h-.35c-2.91,0-5.35-2-5.47-4.3v-.59H0v-5H25.24v-.46c0-2.33,2.56-4.31,5.47-4.31h.35v-4.07h-.35c-2.91,0-5.35-1.86-5.47-4.3v-.47H0v-5H25.24v-.46c0-2.33,2.56-4.31,5.47-4.31h.35v-4.07h-.35c-2.91,0-5.35-1.86-5.47-4.3v-.47H0v-5H25.24v-.58c0-2.21,2.56-4.3,5.47-4.3h.35v-4h-.35c-2.91,0-5.35-1.86-5.47-4.3v-.58H0v-4.89H25.24v-.58c0-2.44,2.56-4.3,5.47-4.3h.35v-4.07h-.35c-2.91,0-5.35-1.87-5.47-4.19v-.58H0v-4.89H25.24v-.58c0-2.44,2.56-4.31,5.47-4.31h.35v-4.07h-.35c-2.91,0-5.35-2-5.47-4.18v-.58H0v-5H25.24V316c0-2.44,2.56-4.31,5.47-4.31h.35v-4.07h-.35c-2.91,0-5.35-2-5.47-4.3v-.58H0v-4.89H25.24v-.58c0-2.33,2.56-4.19,5.47-4.19l.35-.11v-4h-.35c-2.91,0-5.35-2-5.47-4.3v-.58H0v-5H25.24v-.47c0-2.33,2.56-4.3,5.47-4.3h.35v-4.07h-.35c-2.91,0-5.35-1.87-5.47-4.19v-.58H0v-5H25.24v-.47c0-2.32,2.56-4.3,5.47-4.3h.35V251.7h-.35c-2.91,0-5.35-1.85-5.47-4.3v-.58H0v-4.88H25.24v-.47c0-2.33,2.56-4.3,5.47-4.3h.35V233.1h-.35c-2.91,0-5.35-1.87-5.47-4.31v-.58H0v-4.88H25.24v-.58c0-2.45,2.56-4.31,5.47-4.31h.35v-4.07h-.35c-2.91,0-5.35-2-5.47-4.19v-.58H0v-5H25.24v-.47c0-2.44,2.56-4.3,5.47-4.3h.35v-4.07h-.35c-2.91,0-5.35-2-5.47-4.19V191H0v-5H25.24v-.58c0-2.33,2.56-4.19,5.47-4.19h.35v-4.07h-.35c-2.91,0-5.35-2-5.47-4.31v-.58H0v-4.88H25.24v-.58c0-2.33,2.56-4.31,5.47-4.31h.35v-4.07h-.35c-2.91,0-5.35-1.86-5.47-4.19v-.58H0v-5H25.24v-.46c0-2.33,2.56-4.31,5.47-4.31h.35v-4.07h-.35c-2.91,0-5.35-1.86-5.47-4.3V135H0v-5H25.24v-.47c0-2.32,2.56-4.3,5.47-4.3h.35V121.2h-.35c-2.91,0-5.35-1.86-5.47-4.3v-.47H0v-5H25.24V111c0-2.44,2.56-4.3,5.47-4.3h.35v-4.07h-.35c-2.91,0-5.35-1.86-5.47-4.3V97.7H0V92.82H25.24v-.58c0-2.33,2.56-4.31,5.47-4.31h.35V83.86h-.35c-2.91,0-5.35-1.86-5.47-4.18v-.59H0v-5H25.24v-.46c0-2.44,2.56-4.31,5.47-4.31h.35V65.25h-.35c-2.91,0-5.35-2-5.47-4.18v-.59H0v-5H25.24V54.9c0-2.33,2.56-4.19,5.47-4.19h.35a18.9,18.9,0,0,1,18.26-19v-.93c0-2.9,1.86-5.46,4.18-5.46H54V0h5V25.36h.58c2.33,0,4.31,2.56,4.31,5.46Z"/><path class="cls-1" d="M210.18,206.46c3-9.89,2.44-31.4-8.72-36.29a13.14,13.14,0,0,0-6.28-1,12.74,12.74,0,0,0-6.05,1.86,2.68,2.68,0,0,1-2.68-4.65,18.18,18.18,0,0,1,8.49-2.56,18.59,18.59,0,0,1,8.61,1.51c14.08,6.17,15.59,29.78,11.75,42.69a45.15,45.15,0,0,1-2.33,6.28A32.53,32.53,0,0,1,219,224.49,33,33,0,0,1,221.11,238a2.62,2.62,0,0,1-5.23-.23,29.19,29.19,0,0,0-1.86-11.4,27.2,27.2,0,0,0-3.84-7A45.19,45.19,0,0,1,194.36,235c-2.67,1.63-5.12-3-2.67-4.66a41.14,41.14,0,0,0,18.49-23.84Zm107.24,49.9ZM236.93,154.47V305.79a13.67,13.67,0,0,0,15,6.63,12.59,12.59,0,0,0,5.58-2.79,2.66,2.66,0,0,1,3.38,4.07,19.28,19.28,0,0,1-16.29,4,20.64,20.64,0,0,1-7.68-3.72V338a6.75,6.75,0,0,0,1.28,1.28,17.13,17.13,0,0,0,2.21,1.86,29.7,29.7,0,0,0,14,5.82,30.19,30.19,0,0,0,15-1.4,31.42,31.42,0,0,0,18.84-19.19h0a37,37,0,0,0,.81-18.49,37.42,37.42,0,0,0-8.14-16.52,36.24,36.24,0,0,0-15.24-10.59,37.83,37.83,0,0,0-18.38-1.86c-3.83.35-4.65-4.3-.81-5.23a41.77,41.77,0,0,1,17.45,1.05,14.3,14.3,0,0,1-.58-1.63,26.43,26.43,0,0,1-1.28-10,25.71,25.71,0,0,1,2.91-9.77,22.7,22.7,0,0,1,6.51-7.68c2.68-1.86,5.35,2,3.26,4.19a19.59,19.59,0,0,0-5.12,6,20.91,20.91,0,0,0-2.21,7.56,20.21,20.21,0,0,0,.93,7.91,21.37,21.37,0,0,0,3.72,6.52,42.41,42.41,0,0,1,12.8,10,43.1,43.1,0,0,1,9.42,19,45.43,45.43,0,0,1,.81,6.86A46.75,46.75,0,0,0,316.14,291c4.66-10.58,5.36-22.91.82-36.17a12,12,0,0,0-1.86-3,13.38,13.38,0,0,0-11.05-5.23,2.68,2.68,0,0,1-.24-5.35,20.2,20.2,0,0,1,8.73,1.74,19.59,19.59,0,0,1,6.86,5.59c.47.69.93,1.28,1.4,2a49,49,0,0,0,7.56-13.84,47.1,47.1,0,0,0,2.44-19.77,47.88,47.88,0,0,0-6.05-18.85,44.93,44.93,0,0,0-10.93-12.91,39,39,0,0,1-9,10.94,17.68,17.68,0,0,0,5.82,19c2.44,2.56-.58,5.81-3.38,4.18a22.9,22.9,0,0,1-8.49-19.07A38.3,38.3,0,0,1,285,204.37c-3.6.46-4.53-5.12-.58-5.36a27.65,27.65,0,0,0,6.28-1.27,33.38,33.38,0,0,0,7.21-3.26,19.27,19.27,0,0,0,1.63-1A32.18,32.18,0,0,0,310,181a41.69,41.69,0,0,0,1.51-4.07,28.82,28.82,0,0,0,.7-11.75,31.24,31.24,0,0,0-17.1-23.73,30.49,30.49,0,0,0-14.77-3.26l-1.63.12-.81-1.4a25.59,25.59,0,0,0-8.14-9.07,27.21,27.21,0,0,0-11.17-4.65,25.88,25.88,0,0,0-12,.7,26.67,26.67,0,0,0-9.66,5.11v13.84a16.52,16.52,0,0,1,3.14-2.55,18,18,0,0,1,8.38-2.91,18.84,18.84,0,0,1,8.72,1.16,2.69,2.69,0,0,1-2,5,14.48,14.48,0,0,0-6.28-.93,13.38,13.38,0,0,0-5.93,2.1,11.76,11.76,0,0,0-4.3,4.65,13.5,13.5,0,0,0-1.75,5.12ZM251.59,208c-3.84-12.91-2.33-36.52,11.75-42.69a19,19,0,0,1,8.72-1.51,18.14,18.14,0,0,1,8.38,2.56,2.68,2.68,0,0,1-2.68,4.65,12.74,12.74,0,0,0-6.05-1.86,13.14,13.14,0,0,0-6.28,1c-11.05,4.89-11.75,26.4-8.72,36.29A41.14,41.14,0,0,0,275.2,230.3c2.44,1.63,0,6.29-2.67,4.66a47.3,47.3,0,0,1-15.82-15.59,27.2,27.2,0,0,0-3.84,7,29.29,29.29,0,0,0-1.75,11.4,2.69,2.69,0,0,1-5.35.23,33.2,33.2,0,0,1,2.1-13.49,35.16,35.16,0,0,1,6-10.24,46.39,46.39,0,0,1-2.32-6.28ZM230,305.79V154.47a13.13,13.13,0,0,0-1.62-5.12A13.73,13.73,0,0,0,224,144.7a14.32,14.32,0,0,0-6.05-2.1,14.79,14.79,0,0,0-6.28.93,2.69,2.69,0,0,1-2-5,19.3,19.3,0,0,1,8.83-1.16,18,18,0,0,1,8.26,2.91,16.22,16.22,0,0,1,3.14,2.55V129a26.13,26.13,0,0,0-9.53-5.11,26.49,26.49,0,0,0-12.1-.7,27.21,27.21,0,0,0-11.17,4.65A25.59,25.59,0,0,0,189,136.9l-.81,1.4-1.63-.12a30.43,30.43,0,0,0-14.77,3.26,30.07,30.07,0,0,0-11.52,9.77,31.15,31.15,0,0,0-5.58,14,33.49,33.49,0,0,0,.7,11.75A25.19,25.19,0,0,0,157,181a31,31,0,0,0,10.36,12.44,17.78,17.78,0,0,0,1.63,1,36.22,36.22,0,0,0,7.21,3.26A28.92,28.92,0,0,0,182.5,199c3.95.24,3,5.82-.47,5.36a38.21,38.21,0,0,1-13.95-4.19,20.37,20.37,0,0,1-.82,7.44,22.81,22.81,0,0,1-7.68,11.63,2.69,2.69,0,0,1-3.37-4.18,17.68,17.68,0,0,0,5.82-19,39,39,0,0,1-9-10.94,46.73,46.73,0,0,0-10.93,12.91,46,46,0,0,0-5.94,18.85,47.22,47.22,0,0,0,2.33,19.77,46.27,46.27,0,0,0,7.68,13.84,18.29,18.29,0,0,1,1.28-2,19,19,0,0,1,7-5.59,19.29,19.29,0,0,1,8.6-1.74,2.68,2.68,0,0,1-.23,5.35,12.76,12.76,0,0,0-6.16,1.28,12.51,12.51,0,0,0-4.89,3.95,11.27,11.27,0,0,0-1.74,3h0l-.59,1.51A47.47,47.47,0,0,0,171.8,313.7a44.19,44.19,0,0,1,.81-6.86,42.89,42.89,0,0,1,9.42-19,42.41,42.41,0,0,1,12.8-10,21.37,21.37,0,0,0,3.72-6.52,20.39,20.39,0,0,0,.93-7.91,21.11,21.11,0,0,0-2.21-7.56,19.59,19.59,0,0,0-5.12-6c-2.09-2.21.58-6,3.26-4.19a22.7,22.7,0,0,1,6.51,7.68,25.71,25.71,0,0,1,2.91,9.77,24.59,24.59,0,0,1-1.28,10,16.55,16.55,0,0,1-.58,1.63,42.16,42.16,0,0,1,17.56-1.05c3.73.93,2.91,5.58-.93,5.23a37.86,37.86,0,0,0-18.38,1.86,35.21,35.21,0,0,0-15.12,10.59,36.51,36.51,0,0,0-8.26,16.52,35.81,35.81,0,0,0,.94,18.49h-.12a30.64,30.64,0,0,0,4.42,8.38,31.35,31.35,0,0,0,14.42,10.81,30.63,30.63,0,0,0,15.12,1.4,29.24,29.24,0,0,0,13.84-5.82,16.57,16.57,0,0,0,2.22-1.86A6.42,6.42,0,0,0,230,338V313.94a19.74,19.74,0,0,1-7.67,3.72,19.28,19.28,0,0,1-16.29-4,2.66,2.66,0,0,1,3.38-4.07,12.59,12.59,0,0,0,5.58,2.79,14,14,0,0,0,11.75-2.67,13.47,13.47,0,0,0,3.25-4Z"/></svg>