<?xml version="1.0" encoding="UTF-8"?><svg id="a" xmlns="http://www.w3.org/2000/svg" viewBox="0 0 480 480.02"><defs><style>.c,.d{fill:#292929;}.d{fill-rule:evenodd;}</style></defs><g><path class="d" d="M336.17,128.96c4.75,.02,9.38,2.43,12.12,6.27,1.78,2.5,2.76,5.53,2.77,8.62,.11,64.13,.27,128.26,0,192.38-.05,6.13-4.13,12-10.11,14.04-1.52,.52-3.12,.79-4.73,.8-64.14,.27-128.29,.27-192.43,0-4.89-.04-9.64-2.62-12.33-6.65-1.61-2.41-2.49-5.29-2.51-8.19-.3-64.14-.3-128.29,0-192.43,.04-5.15,2.93-10.24,7.5-12.86,2.22-1.27,4.77-1.96,7.34-1.98,64.13-.3,128.26-.11,192.38,0h0Zm-192.29,4.41c-3.39,0-6.72,1.74-8.65,4.53-1.2,1.73-1.86,3.83-1.88,5.94-.3,64.12-.3,128.25,0,192.37,.02,3.26,1.64,6.44,4.24,8.38,1.79,1.34,4.02,2.08,6.26,2.09,64.11,.11,128.23,.27,192.34,0,3.32-.03,6.59-1.72,8.51-4.42,1.25-1.76,1.94-3.91,1.95-6.07,.11-64.11,.27-128.23,0-192.34-.02-3.11-1.5-6.17-3.91-8.12-1.85-1.49-4.21-2.33-6.59-2.34-64.09-.11-128.18,0-192.27,0h0Z"/><path class="d" d="M180.23,109.75c.44,.04,.51,.09,.7,.16,.71,.29,1.24,.98,1.34,1.75,.02,.13,.01,.16,.02,.29v19.21c-.05,1.68-2.25,2.89-3.66,1.66-.4-.35-.66-.85-.73-1.37-.02-.13-.01-.16-.02-.29v-17.01h-19.68v17.01c-.05,1.45-1.65,2.61-3.05,2.04-.71-.29-1.24-.98-1.34-1.75-.02-.13-.01-.16-.02-.29v-19.21c.01-.44,.05-.52,.12-.71,.26-.77,.98-1.37,1.8-1.48,.13-.02,.16-.01,.29-.02h24.23Z"/><path class="d" d="M227.88,109.75c.44,.04,.51,.09,.7,.16,.71,.29,1.24,.98,1.34,1.75,.02,.13,.01,.16,.02,.29v19.21c0,.13,0,.16-.02,.29-.16,1.22-1.52,2.17-2.75,1.84-.93-.25-1.6-1.15-1.63-2.13v-17.01h-19.68v17.01c-.05,1.45-1.65,2.61-3.05,2.04-.71-.29-1.24-.98-1.34-1.75-.02-.13-.01-.16-.02-.29v-19.21c.01-.44,.05-.52,.12-.71,.26-.77,.98-1.37,1.8-1.48,.13-.02,.16-.01,.29-.02h24.23Z"/><path class="d" d="M275.52,109.75c.44,.04,.51,.09,.7,.16,.71,.29,1.24,.98,1.34,1.75,.02,.13,.01,.16,.02,.29v19.21c0,.13,0,.16-.02,.29-.16,1.18-1.41,2.11-2.61,1.87-.99-.2-1.74-1.12-1.77-2.16v-17.01h-19.68v17.01c-.04,1.12-.93,2.12-2.06,2.2-1.1,.07-2.18-.8-2.33-1.91-.02-.13-.01-.16-.02-.29v-19.21c.01-.44,.05-.52,.12-.71,.26-.77,.98-1.37,1.8-1.48,.13-.02,.16-.01,.29-.02h24.23Z"/><path class="d" d="M323.17,109.75c.44,.04,.51,.09,.7,.16,.71,.29,1.24,.98,1.34,1.75,.02,.13,.01,.16,.02,.29v19.21c-.04,1.22-1.14,2.28-2.35,2.2-1.01-.07-1.91-.91-2.04-1.91-.02-.13-.01-.16-.02-.29v-17.01h-19.68v17.01c-.04,1.22-1.14,2.28-2.35,2.2-1.01-.07-1.91-.91-2.04-1.91-.02-.13-.01-.16-.02-.29v-19.21c.01-.44,.05-.52,.12-.71,.26-.77,.98-1.37,1.8-1.48,.13-.02,.16-.01,.29-.02h24.23Z"/><path class="d" d="M216.47,62.8c.16,.08,.32,.15,.47,.25,.44,.31,.76,.77,.89,1.29,.04,.17,.04,.35,.06,.53v47.09c-.02,.18-.02,.36-.06,.53-.38,1.53-2.63,2.25-3.79,.93-.24-.27-.4-.59-.49-.93-.04-.17-.04-.35-.06-.53v-47.09c.06-.46,.03-.6,.25-1.02,.33-.63,.98-1.08,1.69-1.16,.35-.04,.7,.04,1.05,.13h0Z"/><path class="d" d="M192.37,19.7c.31,.17,.63,.34,.87,.6,.24,.27,.4,.59,.49,.93,.04,.17,.04,.35,.06,.53v43.1c-.04,.44-.13,.87-.37,1.22-.08,.12-.18,.22-.27,.33l-22.9,22.9v22.63l-.06,.53c-.17,.44-.17,.58-.49,.93-.81,.92-2.44,.97-3.3,0-.24-.27-.4-.59-.49-.93-.04-.17-.04-.35-.06-.53v-23.55c.04-.44,.13-.87,.37-1.22,.08-.12,.18-.22,.27-.33l22.9-22.9V21.76l.06-.53c.06-.17,.11-.34,.19-.5,.33-.64,.99-1.08,1.69-1.16,.35-.04,.7,.04,1.05,.13h0Z"/><path class="d" d="M306.83,19.59c.45,.14,.59,.14,.96,.43,.69,.54,1.01,1.54,.74,2.39-.14,.46-.26,.53-.55,.9l-42.46,42.46v46.18l-.06,.53c-.17,.44-.17,.58-.49,.93-.81,.91-2.44,.97-3.3,0-.24-.27-.4-.59-.49-.93-.04-.17-.04-.35-.06-.53v-47.09c.04-.44,.13-.87,.37-1.22,.08-.12,.18-.22,.27-.33l43.1-43.1c.37-.29,.45-.4,.9-.55,.34-.1,.7-.09,1.05-.06h0Z"/><path class="d" d="M299.19,78.58c.14,.02,.18,.02,.32,.06,.37,.1,.7,.31,.99,.57l12.04,12.04c.33,.35,.56,.78,.62,1.24,.02,.14,.02,.17,.02,.31v19.14c0,.15,0,.18-.02,.33-.2,1.34-1.84,2.28-3.13,1.66-.74-.36-1.22-1.14-1.25-1.99v-18.23l-11.4-11.4-.11-.12c-.09-.11-.12-.14-.2-.26-.64-1.02-.26-2.54,.84-3.12,.24-.13,.51-.21,.78-.24,.31-.04,.39,0,.49,0h0Z"/><path class="d" d="M191.67,0c3.07,.03,6.1,1.27,8.29,3.41,2.68,2.61,4.02,6.53,3.5,10.24-.69,4.9-4.68,9.18-9.67,10.11-3.58,.66-7.45-.4-10.19-2.87-3.72-3.34-5.04-9.08-2.95-13.78C182.51,2.93,186.92,.04,191.51,0c.05,0,.1,0,.15,0h0Zm-.13,4.41c-2.91,.03-5.7,1.86-6.87,4.5-.95,2.14-.83,4.72,.31,6.76,1.78,3.17,6.01,4.77,9.52,3.31,2.4-1,4.21-3.31,4.59-5.89,.35-2.4-.53-4.95-2.3-6.62-1.37-1.29-3.24-2.04-5.14-2.06-.03,0-.07,0-.1,0h0Z"/><path class="d" d="M215.63,42.48c3.02,.03,6.01,1.23,8.19,3.31,3.61,3.44,4.77,9.21,2.53,13.86-2.25,4.68-7.77,7.59-13.06,6.57-4.84-.93-8.89-5.04-9.6-10.09-.71-5.07,2.16-10.43,6.93-12.59,1.57-.71,3.29-1.07,5.01-1.06h0Zm-.13,4.41c-3.42,.03-6.65,2.62-7.36,6-.53,2.5,.31,5.25,2.15,7.02,2.1,2.03,5.43,2.68,8.16,1.55,2.42-1.01,4.23-3.35,4.6-5.94,.33-2.38-.54-4.89-2.28-6.54-1.38-1.31-3.24-2.07-5.17-2.09-.03,0-.07,0-.1,0h0Z"/><path class="d" d="M291.71,62.04c3.04,.03,6.01,1.23,8.19,3.31,3.62,3.45,4.77,9.21,2.53,13.86-2.25,4.68-7.77,7.59-13.06,6.57-4.83-.93-8.89-5.03-9.6-10.09-.54-3.82,.91-7.87,3.76-10.49,2.17-1.99,5.06-3.13,8.03-3.16,.05,0,.1,0,.15,0h0Zm-.13,4.41c-2.76,.03-5.44,1.68-6.7,4.13-1.06,2.07-1.09,4.63-.08,6.72,1.43,2.96,4.91,4.8,8.26,4.16,3.06-.59,5.61-3.25,6.06-6.33,.35-2.39-.52-4.92-2.27-6.59-1.38-1.32-3.26-2.07-5.17-2.09-.03,0-.07,0-.1,0h0Z"/><path class="d" d="M314.29,0c4.43,.04,8.75,2.7,10.72,6.79,2.16,4.47,1.21,10.25-2.48,13.82-3.78,3.64-10.06,4.45-14.71,1.51-2.92-1.85-4.98-5-5.47-8.46-.52-3.73,.84-7.68,3.55-10.29C308.09,1.25,311.1,.03,314.14,0c.05,0,.1,0,.15,0h0Zm-.13,4.41c-2.72,.03-5.35,1.62-6.63,4.01-1.11,2.08-1.18,4.68-.17,6.8,1.41,2.97,4.87,4.83,8.24,4.21,3.1-.57,5.7-3.29,6.12-6.43,.31-2.31-.52-4.75-2.18-6.4-1.39-1.37-3.31-2.17-5.27-2.19-.03,0-.07,0-.1,0h0Z"/><path class="d" d="M180.23,346.67c.44,.04,.51,.09,.7,.16,.71,.29,1.24,.98,1.34,1.75,.02,.13,.01,.16,.02,.29v19.21c-.01,.44-.05,.52-.12,.71-.26,.77-.98,1.37-1.8,1.48-.13,.02-.16,.01-.29,.02h-24.08c-.44-.01-.52-.05-.71-.12-.77-.26-1.37-.98-1.48-1.8-.02-.13-.01-.16-.02-.29v-19.21c0-.13,0-.16,.02-.29,.19-1.45,2.08-2.43,3.41-1.54,.6,.4,.95,1.09,.98,1.83v17.01h19.68v-17.01c.01-.44,.05-.52,.12-.71,.26-.77,.98-1.37,1.8-1.48,.28-.04,.34-.02,.43-.01h0Z"/><path class="d" d="M227.88,346.67c.44,.04,.51,.09,.7,.16,.71,.29,1.24,.98,1.34,1.75,.02,.13,.01,.16,.02,.29v19.21c-.01,.44-.05,.52-.12,.71-.26,.77-.98,1.37-1.8,1.48-.13,.02-.16,.01-.29,.02h-24.08c-.44-.01-.52-.05-.71-.12-.77-.26-1.37-.98-1.48-1.8-.02-.13-.01-.16-.02-.29v-19.21c0-.13,0-.16,.02-.29,.19-1.45,2.08-2.43,3.41-1.54,.6,.4,.95,1.09,.98,1.83v17.01h19.68v-17.01c.01-.44,.05-.52,.12-.71,.26-.77,.98-1.37,1.8-1.48,.28-.04,.34-.02,.43-.01h0Z"/><path class="d" d="M275.52,346.67c.44,.04,.51,.09,.7,.16,.71,.29,1.24,.98,1.34,1.75,.02,.13,.01,.16,.02,.29v19.21c-.01,.44-.05,.52-.12,.71-.26,.77-.98,1.37-1.8,1.48-.13,.02-.16,.01-.29,.02h-24.08c-.44-.01-.52-.05-.71-.12-.77-.26-1.37-.98-1.48-1.8-.02-.13-.01-.16-.02-.29v-19.21c0-.13,0-.16,.02-.29,.16-1.18,1.42-2.11,2.61-1.87,.99,.2,1.74,1.12,1.77,2.16v17.01h19.68v-17.01c.01-.44,.05-.52,.12-.71,.26-.77,.98-1.37,1.8-1.48,.28-.04,.34-.02,.43-.01h0Z"/><path class="d" d="M323.17,346.67c.44,.04,.51,.09,.7,.16,.71,.29,1.24,.98,1.34,1.75,.02,.13,.01,.16,.02,.29v19.21c-.01,.44-.05,.52-.12,.71-.26,.77-.98,1.37-1.8,1.48-.13,.02-.16,.01-.29,.02h-24.08c-.44-.01-.52-.05-.71-.12-.77-.26-1.37-.98-1.48-1.8-.02-.13-.01-.16-.02-.29v-19.21c.04-1.22,1.14-2.28,2.35-2.2,1.01,.07,1.91,.91,2.04,1.91,.02,.13,.01,.16,.02,.29v17.01h19.68v-17.01c.01-.44,.05-.52,.12-.71,.26-.77,.98-1.37,1.8-1.48,.28-.04,.34-.02,.43-.01h0Z"/><path class="d" d="M216.47,366.02c.31,.17,.63,.34,.87,.6,.24,.27,.4,.59,.49,.93,.04,.17,.04,.35,.06,.53v47.09c-.02,.18-.02,.36-.06,.53-.37,1.51-2.59,2.29-3.79,.93-.24-.27-.4-.59-.49-.93-.04-.17-.04-.35-.06-.53v-47.09c.06-.46,.03-.6,.25-1.02,.33-.62,.98-1.08,1.69-1.16,.35-.04,.7,.04,1.05,.13h0Z"/><path class="d" d="M168.83,366.02c.31,.17,.63,.34,.87,.6,.24,.27,.4,.59,.49,.93,.04,.17,.04,.35,.06,.53v22.63l22.9,22.9,.27,.33c.18,.34,.25,.41,.33,.79,.03,.14,.03,.29,.04,.43v43.1c-.02,.18-.02,.36-.06,.53-.37,1.51-2.59,2.29-3.79,.93-.24-.27-.4-.59-.49-.93-.04-.17-.04-.35-.06-.53v-42.19l-22.9-22.9-.27-.33c-.18-.34-.25-.41-.33-.79-.03-.14-.03-.29-.04-.43v-23.55c.06-.46,.03-.6,.25-1.02,.33-.64,.99-1.08,1.69-1.16,.35-.04,.7,.04,1.05,.13h0Z"/><path class="d" d="M264.12,366.02c.31,.17,.63,.34,.87,.6,.24,.27,.4,.59,.49,.93,.04,.17,.04,.35,.06,.53v46.18l42.46,42.46,.33,.42c.07,.16,.17,.32,.22,.48,.46,1.48-1.03,3.3-2.76,2.76-.46-.14-.53-.26-.9-.55l-43.1-43.1c-.28-.34-.52-.71-.6-1.13-.03-.14-.03-.29-.04-.43v-47.09c.06-.46,.03-.6,.25-1.02,.33-.62,.98-1.08,1.69-1.16,.35-.04,.7,.04,1.05,.13h0Z"/><path class="d" d="M311.14,365.88c1,.11,1.87,.88,2.01,1.87,.02,.15,.02,.18,.02,.33v19.14c-.02,.48-.16,.94-.44,1.32-.08,.11-.11,.14-.21,.24l-12.04,12.04c-.94,.87-2.56,.8-3.33-.25-.55-.75-.56-1.86,0-2.62,.09-.12,.12-.14,.21-.25l11.4-11.4v-18.39c.12-1,.89-1.87,1.87-2.01,.31-.05,.39-.02,.49-.02h0Z"/><path class="d" d="M191.67,456.07c2.93,.03,5.81,1.14,7.98,3.11,2.87,2.61,4.35,6.68,3.81,10.54-.67,4.8-4.5,9.02-9.38,10.05-5.16,1.09-10.9-1.58-13.28-6.53-2.19-4.54-1.17-10.42,2.64-13.96,2.17-2.02,5.1-3.18,8.08-3.21,.05,0,.1,0,.15,0h0Zm-.13,4.41c-3.48,.03-6.73,2.7-7.39,6.14-.48,2.48,.38,5.17,2.21,6.92,2.11,2.01,5.39,2.65,8.13,1.52,2.4-1,4.21-3.31,4.59-5.89,.34-2.31-.46-4.77-2.11-6.43-1.38-1.4-3.32-2.22-5.29-2.25-.05,0-.1,0-.15,0h0Z"/><path class="d" d="M215.63,413.59c3.01,.03,6.01,1.23,8.19,3.31,3.6,3.43,4.77,9.15,2.56,13.8-1.92,4.05-6.27,6.85-10.83,6.85s-8.86-2.71-10.83-6.85c-1.58-3.32-1.51-7.38,.19-10.65,2-3.84,6.2-6.42,10.56-6.46,.05,0,.1,0,.15,0h0Zm-.13,4.41c-3.42,.03-6.64,2.61-7.36,6-.53,2.52,.33,5.28,2.19,7.05,2.1,2.01,5.39,2.65,8.13,1.52,2.42-1.01,4.23-3.34,4.6-5.94,.33-2.38-.54-4.89-2.28-6.54-1.38-1.32-3.26-2.07-5.17-2.09-.03,0-.07,0-.1,0h0Z"/><path class="d" d="M291.71,394.04c4.41,.04,8.71,2.69,10.69,6.72,2.19,4.47,1.26,10.3-2.45,13.88-3.32,3.21-8.57,4.25-12.91,2.44-3.84-1.6-6.72-5.3-7.28-9.47-.5-3.73,.88-7.66,3.61-10.27,2.18-2.08,5.13-3.28,8.19-3.31,.05,0,.1,0,.15,0h0Zm-.13,4.41c-2.71,.03-5.35,1.62-6.63,4.01-1.12,2.09-1.17,4.71-.15,6.85,1.64,3.4,6.03,5.26,9.73,3.72,2.4-1,4.21-3.31,4.59-5.89,.35-2.39-.52-4.92-2.27-6.59-1.38-1.32-3.26-2.07-5.17-2.09-.03,0-.07,0-.1,0h0Z"/><path class="d" d="M314.29,456.07c4.49,.04,8.81,2.75,10.75,6.85,2.12,4.47,1.15,10.22-2.51,13.75-3.33,3.21-8.57,4.25-12.91,2.44-3.81-1.58-6.68-5.22-7.27-9.39-.71-5.05,2.09-10.4,6.93-12.59,1.57-.71,3.3-1.07,5.01-1.06h0Zm-.13,4.41c-2.75,.03-5.41,1.66-6.68,4.09-1.09,2.09-1.12,4.69-.08,6.81,1.65,3.37,6.04,5.2,9.71,3.68,2.4-1,4.21-3.31,4.59-5.89,.47-3.19-1.3-6.6-4.34-7.99-1-.46-2.11-.69-3.21-.69h0Z"/><path class="d" d="M131.29,297.73c.13,.01,.16,.01,.29,.04,1.44,.29,2.29,2.24,1.32,3.5-.41,.53-1.07,.84-1.75,.86h-17.01v19.68h17.01c.13,0,.16,0,.29,.02,1.45,.19,2.43,2.08,1.54,3.41-.4,.6-1.09,.95-1.83,.98h-19.21c-.44-.01-.52-.05-.71-.12-.77-.26-1.37-.98-1.48-1.8-.02-.13-.01-.16-.02-.29v-24.08c.01-.44,.05-.52,.12-.71,.26-.77,.98-1.37,1.8-1.48,.13-.02,.16-.01,.29-.02h19.35Z"/><path class="d" d="M131.29,250.08c1.4,.14,2.44,1.71,1.89,3.04-.29,.71-.98,1.24-1.75,1.34-.13,.02-.16,.01-.29,.02h-17.01v19.68h17.01c.13,0,.16,0,.29,.02,1.45,.19,2.43,2.08,1.54,3.41-.4,.6-1.09,.95-1.83,.98h-19.21c-.44-.01-.52-.05-.71-.12-.77-.26-1.37-.98-1.48-1.8-.02-.13-.01-.16-.02-.29v-24.08c.01-.44,.05-.52,.12-.71,.26-.77,.98-1.37,1.8-1.48,.13-.02,.16-.01,.29-.02h19.35Z"/><path class="d" d="M131.29,202.44c.13,.01,.16,.01,.29,.04,1.44,.29,2.29,2.23,1.32,3.5-.41,.53-1.07,.84-1.75,.86h-17.01v19.68h17.01c1.22,.04,2.28,1.14,2.2,2.35-.07,1.01-.91,1.91-1.91,2.04-.13,.02-.16,.01-.29,.02h-19.21c-.44-.01-.52-.05-.71-.12-.77-.26-1.37-.98-1.48-1.8-.02-.13-.01-.16-.02-.29v-24.08c.01-.44,.05-.52,.12-.71,.26-.77,.98-1.37,1.8-1.48,.13-.02,.16-.01,.29-.02h19.35Z"/><path class="d" d="M131.29,154.79c.13,.01,.16,.01,.29,.04,1.21,.24,2.07,1.66,1.66,2.87-.29,.86-1.16,1.46-2.09,1.5h-17.01v19.68h17.01c.13,0,.16,0,.29,.02,1.23,.16,2.17,1.52,1.84,2.75-.25,.93-1.15,1.6-2.13,1.63h-19.21c-.44-.01-.52-.05-.71-.12-.77-.26-1.37-.98-1.48-1.8-.02-.13-.01-.16-.02-.29v-24.08c.01-.44,.05-.52,.12-.71,.26-.77,.98-1.37,1.8-1.48,.13-.02,.16-.01,.29-.02h19.35Z"/><path class="d" d="M112.46,262.19c.44,.17,.58,.17,.93,.49,.92,.82,.96,2.45,0,3.3-.27,.24-.59,.4-.93,.49-.17,.04-.35,.04-.53,.06h-47.09c-.18-.02-.36-.02-.53-.06-1.04-.26-1.79-1.33-1.66-2.4,.11-.89,.79-1.66,1.66-1.87,.17-.04,.35-.04,.53-.06h47.09l.53,.06h0Z"/><path class="d" d="M65.27,286.26c.14,.04,.28,.07,.41,.13,.36,.15,.42,.24,.71,.48l22.9,22.9h22.63l.53,.06c.44,.17,.58,.17,.93,.49,.92,.81,.97,2.44,0,3.3-.27,.24-.59,.4-.93,.49-.17,.04-.35,.04-.53,.06h-23.55c-.44-.04-.87-.13-1.22-.37-.12-.08-.22-.18-.33-.27l-22.9-22.9H21.74l-.53-.06c-.44-.17-.58-.17-.93-.49-.92-.81-.97-2.44,0-3.3,.27-.24,.59-.4,.93-.49,.17-.04,.35-.04,.53-.06h43.1c.14,.01,.29,.03,.43,.04h0Z"/><path class="d" d="M22.39,171.47c.48,.22,.49,.22,.9,.55l42.46,42.46h46.18l.53,.06c.17,.06,.34,.11,.5,.19,1.39,.73,1.58,3.07,0,3.9-.42,.22-.56,.2-1.02,.25h-47.09c-.44-.04-.87-.13-1.22-.37-.12-.08-.22-.18-.33-.27l-43.1-43.1c-.29-.37-.4-.45-.55-.9-.31-1.01,.21-2.22,1.2-2.66,.44-.2,.57-.16,1.04-.19,.17,.03,.35,.06,.52,.1h0Z"/><path class="d" d="M112.1,166.84c1.18,.13,2.12,1.22,2.03,2.36-.07,.98-.88,1.87-1.87,2.01-.14,.02-.18,.02-.33,.02h-18.23l-11.4,11.4-.12,.11c-.11,.09-.14,.12-.26,.2-1.11,.7-2.8,.15-3.25-1.14-.27-.77-.05-1.67,.52-2.29l12.04-12.04c.35-.32,.78-.56,1.24-.62,.14-.02,.17-.02,.31-.02h19.31Z"/><path class="d" d="M12.04,276.44c3.08,.03,6.1,1.27,8.29,3.41,3.54,3.46,4.66,9.14,2.43,13.76-2.26,4.68-7.77,7.59-13.06,6.57-3.65-.7-6.9-3.19-8.53-6.57-1.59-3.29-1.55-7.32,.1-10.58,1.98-3.91,6.23-6.55,10.62-6.59,.05,0,.1,0,.15,0h0Zm-.13,4.41c-2.7,.02-5.32,1.6-6.61,3.97-1.13,2.08-1.2,4.7-.19,6.85,1.41,2.98,4.91,4.85,8.28,4.2,3.07-.59,5.63-3.26,6.07-6.38,.34-2.42-.58-4.98-2.38-6.64-1.37-1.26-3.19-1.98-5.07-2h-.1Z"/><path class="d" d="M54.52,252.48c4.41,.04,8.71,2.69,10.69,6.72,2.19,4.47,1.28,10.28-2.45,13.88-3.32,3.2-8.55,4.26-12.91,2.45-3.82-1.59-6.69-5.29-7.27-9.39-.53-3.8,.88-7.81,3.7-10.44,2.17-2.02,5.1-3.18,8.08-3.21,.05,0,.1,0,.15,0h0Zm-.13,4.41c-2.72,.03-5.35,1.62-6.63,4.01-1.12,2.09-1.17,4.71-.15,6.85,1.64,3.4,6.04,5.25,9.73,3.72,2.41-1,4.21-3.31,4.59-5.89,.35-2.42-.55-4.99-2.34-6.65-1.37-1.28-3.22-2.01-5.11-2.03h-.1Z"/><path class="d" d="M74.07,176.4c3.01,.03,6.01,1.23,8.19,3.31,2.72,2.6,4.11,6.53,3.61,10.27-.66,4.91-4.62,9.21-9.61,10.17-4.37,.84-9.14-.95-11.86-4.6-2.65-3.54-3.1-8.6-1.1-12.56,1.97-3.91,6.17-6.55,10.62-6.59,.05,0,.1,0,.15,0h0Zm-.13,4.41c-2.7,.03-5.32,1.6-6.61,3.97-1.13,2.08-1.2,4.7-.19,6.85,1.41,2.98,4.91,4.85,8.28,4.2,3.06-.59,5.63-3.26,6.07-6.38,.33-2.37-.54-4.88-2.28-6.54-1.38-1.31-3.26-2.07-5.17-2.09h-.1Z"/><path class="d" d="M12.04,153.82c2.99,.03,5.96,1.21,8.14,3.26,3.65,3.44,4.83,9.25,2.58,13.91-2.25,4.67-7.72,7.56-12.99,6.59-3.68-.68-6.97-3.19-8.61-6.59-1.59-3.29-1.55-7.32,.1-10.58,1.98-3.91,6.25-6.55,10.62-6.59,.05,0,.1,0,.15,0h0Zm-.13,4.41c-2.71,.03-5.35,1.62-6.63,4.01-1.11,2.08-1.18,4.68-.17,6.81,1.41,2.97,4.87,4.83,8.24,4.21,3.08-.57,5.67-3.26,6.11-6.39,.34-2.43-.59-5.01-2.41-6.67-1.36-1.24-3.17-1.95-5.04-1.97h-.1Z"/><path class="d" d="M368.21,297.73c.44,.04,.51,.09,.7,.16,.71,.29,1.24,.98,1.34,1.75,.02,.13,.01,.16,.02,.29v24.08c-.01,.44-.05,.52-.12,.71-.26,.77-.98,1.37-1.8,1.48-.13,.02-.16,.01-.29,.02h-19.21c-1.22-.04-2.28-1.14-2.2-2.35,.07-1.01,.91-1.91,1.91-2.04,.13-.02,.16-.01,.29-.02h17.01v-19.68h-17.01c-1.45-.05-2.61-1.65-2.04-3.05,.29-.71,.98-1.24,1.75-1.34,.13-.02,.16-.01,.29-.02h19.35Z"/><path class="d" d="M368.21,250.08c.44,.04,.51,.09,.7,.16,.71,.29,1.24,.98,1.34,1.75,.02,.13,.01,.16,.02,.29v24.08c-.01,.44-.05,.52-.12,.71-.26,.77-.98,1.37-1.8,1.48-.13,.02-.16,.01-.29,.02h-19.21c-1.22-.04-2.28-1.14-2.2-2.35,.07-1.01,.91-1.91,1.91-2.04,.13-.02,.16-.01,.29-.02h17.01v-19.68h-17.01c-1.45-.05-2.61-1.65-2.04-3.05,.29-.71,.98-1.24,1.75-1.34,.13-.02,.16-.01,.29-.02h19.35Z"/><path class="d" d="M368.21,202.44c.44,.04,.51,.09,.7,.16,.71,.29,1.24,.98,1.34,1.75,.02,.13,.01,.16,.02,.29v24.08c-.01,.44-.05,.52-.12,.71-.26,.77-.98,1.37-1.8,1.48-.13,.02-.16,.01-.29,.02h-19.21c-1.12-.04-2.12-.93-2.2-2.06-.07-1.1,.8-2.18,1.91-2.33,.13-.02,.16-.01,.29-.02h17.01v-19.68h-17.01c-1.45-.05-2.61-1.65-2.04-3.05,.29-.71,.98-1.24,1.75-1.34,.13-.02,.16-.01,.29-.02h19.35Z"/><path class="d" d="M368.21,154.79c.44,.04,.51,.09,.7,.16,.71,.29,1.24,.98,1.34,1.75,.02,.13,.01,.16,.02,.29v24.08c-.01,.44-.05,.52-.12,.71-.26,.77-.98,1.37-1.8,1.48-.13,.02-.16,.01-.29,.02h-19.21c-1.45-.05-2.61-1.65-2.04-3.05,.29-.71,.98-1.24,1.75-1.34,.13-.02,.16-.01,.29-.02h17.01v-19.68h-17.01c-1.22-.04-2.28-1.14-2.2-2.35,.07-1.01,.91-1.91,1.91-2.04,.13-.02,.16-.01,.29-.02h19.35Z"/><path class="d" d="M415.68,262.19c.44,.17,.58,.17,.93,.49,.92,.82,.96,2.45,0,3.3-.27,.24-.59,.4-.93,.49-.17,.04-.35,.04-.53,.06h-47.09c-.18-.02-.36-.02-.53-.06-1.51-.37-2.29-2.59-.93-3.79,.27-.24,.59-.4,.93-.49,.17-.04,.35-.04,.53-.06h47.09l.53,.06h0Z"/><path class="d" d="M458.78,286.28c.44,.17,.58,.17,.93,.49,.93,.82,.97,2.44,0,3.3-.27,.24-.59,.4-.93,.49-.17,.04-.35,.04-.53,.06h-42.19l-22.9,22.9-.33,.27c-.13,.07-.25,.15-.38,.2-.36,.15-.46,.13-.84,.17h-23.55c-.18-.02-.36-.02-.53-.06-1.51-.37-2.29-2.59-.93-3.79,.27-.24,.59-.4,.93-.49,.17-.04,.35-.04,.53-.06h22.63l22.9-22.9,.33-.27c.34-.18,.41-.25,.79-.33,.14-.03,.29-.03,.43-.04h43.1l.53,.06h0Z"/><path class="d" d="M458.65,171.41c.45,.14,.59,.14,.96,.43,.7,.55,1.01,1.54,.74,2.39-.14,.46-.26,.53-.55,.9l-43.1,43.1c-.34,.28-.71,.52-1.13,.6-.14,.03-.29,.03-.43,.04h-47.09c-.18-.02-.36-.02-.53-.06-1.51-.37-2.29-2.59-.93-3.79,.27-.24,.59-.4,.93-.49,.17-.04,.35-.04,.53-.06h46.18l42.46-42.46,.42-.33c.48-.22,.49-.22,1.01-.31,.18,.01,.35,.02,.53,.03h0Z"/><path class="d" d="M387.36,166.84c.42,.05,.83,.18,1.16,.43,.11,.08,.14,.11,.24,.21l12.04,12.04c.1,.11,.13,.13,.21,.25,.84,1.13,.26,3.04-1.2,3.44-.74,.2-1.55-.04-2.13-.57l-11.4-11.4h-18.39c-1-.12-1.87-.9-2.01-1.87-.17-1.14,.69-2.33,1.85-2.51,.14-.02,.18-.02,.33-.02h19.3Z"/><path class="d" d="M468.11,276.44c4.44,.04,8.7,2.66,10.69,6.72,1.58,3.23,1.61,7.18,.03,10.45-2.26,4.68-7.77,7.59-13.06,6.57-5.36-1.03-9.72-6-9.72-11.77,0-4.55,2.79-8.99,7.05-10.92,1.57-.71,3.29-1.07,5.01-1.06h0Zm-.13,4.41c-3.42,.03-6.65,2.62-7.36,6-.72,3.4,1.18,7.19,4.51,8.57,2.69,1.12,6.01,.52,8.16-1.55,2.27-2.19,2.96-5.89,1.55-8.77-1.23-2.51-3.88-4.23-6.76-4.25h-.1Z"/><path class="d" d="M425.63,252.48c4.41,.04,8.71,2.69,10.69,6.72,2.19,4.46,1.26,10.3-2.45,13.88-3.32,3.2-8.55,4.26-12.91,2.45-3.82-1.59-6.69-5.24-7.27-9.39-.71-5.04,2.09-10.4,6.93-12.59,1.57-.71,3.3-1.07,5.01-1.06h0Zm-.13,4.41c-2.78,.03-5.47,1.7-6.72,4.17-1.04,2.06-1.07,4.6-.06,6.68,1.43,2.96,4.91,4.8,8.26,4.16,3.06-.59,5.61-3.25,6.06-6.33,.35-2.42-.55-4.99-2.34-6.65-1.37-1.28-3.22-2.01-5.11-2.03h-.1Z"/><path class="d" d="M406.08,176.4c3.01,.03,6.01,1.23,8.19,3.31,3.6,3.43,4.76,9.16,2.56,13.8-1.92,4.05-6.25,6.85-10.83,6.85-5.65,0-11.07-4.4-11.87-10.38-.5-3.73,.88-7.67,3.61-10.27,2.18-2.08,5.13-3.28,8.19-3.31,.05,0,.1,0,.15,0h0Zm-.13,4.41c-2.72,.03-5.35,1.62-6.63,4.01-1.11,2.07-1.18,4.68-.17,6.8,1.41,2.98,4.91,4.85,8.28,4.2,3.06-.59,5.63-3.26,6.07-6.38,.33-2.38-.54-4.89-2.28-6.54-1.38-1.32-3.26-2.07-5.17-2.09h-.1Z"/><path class="d" d="M468.11,153.82c4.41,.04,8.71,2.68,10.69,6.72,1.58,3.23,1.61,7.18,.03,10.45-2.25,4.66-7.72,7.56-12.99,6.59-5.4-1-9.79-6.01-9.79-11.78,0-4.55,2.78-8.99,7.05-10.92,1.57-.71,3.29-1.07,5.01-1.06h0Zm-.13,4.41c-3.42,.03-6.65,2.62-7.36,6-.53,2.5,.31,5.25,2.15,7.02,2.1,2.02,5.41,2.69,8.16,1.55,2.43-1.01,4.25-3.34,4.6-5.98,.43-3.2-1.42-6.57-4.39-7.92-.99-.45-2.07-.67-3.16-.67h0Z"/></g><g id="b"><path class="c" d="M320.77,299.94c-.29,0-.59-.05-.87-.15l-30.27-10.74c-11.39,7.13-24.48,10.89-37.91,10.89-39.51,0-71.65-32.14-71.65-71.66s32.14-71.65,71.65-71.65,71.65,32.14,71.65,71.65c0,13.43-3.76,26.5-10.89,37.91l10.74,30.27c.34,.95,.1,2-.62,2.71-.5,.5-1.17,.76-1.84,.76Zm-69.05-138.1c-36.63,0-66.44,29.8-66.44,66.44s29.81,66.44,66.44,66.44c12.86,0,25.36-3.72,36.16-10.74,.68-.44,1.54-.53,2.29-.27l26.31,9.34-9.34-26.31c-.27-.76-.17-1.61,.27-2.29,7.03-10.81,10.74-23.32,10.74-36.16,0-36.64-29.81-66.44-66.44-66.44Z"/><path class="c" d="M250.37,307.68c-9.18,6.58-20.39,10.49-32.52,10.49-10.83,0-21.37-3.13-30.49-9.05-.43-.28-.92-.42-1.42-.42-.3,0-.59,.05-.87,.15l-21.56,7.65,7.65-21.56c.27-.76,.17-1.61-.27-2.29-5.92-9.11-9.06-19.65-9.06-30.49,0-12.13,3.91-23.34,10.49-32.52-.01-.45-.07-.9-.07-1.35,0-2.45,.15-4.86,.37-7.26-9.9,10.89-16,25.29-16,41.13,0,11.42,3.18,22.53,9.21,32.24l-9.06,25.52c-.34,.95-.1,2,.62,2.71,.5,.5,1.17,.76,1.84,.76,.29,0,.59-.05,.87-.15l25.52-9.05c9.71,6.02,20.82,9.2,32.24,9.2,15.84,0,30.25-6.1,41.13-16-2.41,.22-4.82,.37-7.26,.37-.46,0-.9-.06-1.35-.07Z"/><g><circle class="c" cx="223.06" cy="228.28" r="7.82"/><circle class="c" cx="251.72" cy="228.28" r="7.82"/><circle class="c" cx="280.39" cy="228.28" r="7.82"/></g></g></svg>