<svg id="Layer_1" data-name="Layer 1" xmlns="http://www.w3.org/2000/svg" viewBox="0 0 1534 1385.04"><defs><style>.cls-1,.cls-2,.cls-3,.cls-5,.cls-6,.cls-7{fill:none;}.cls-1,.cls-2,.cls-3,.cls-4,.cls-5,.cls-6,.cls-7{stroke:#555;}.cls-1,.cls-2,.cls-3,.cls-4,.cls-7{stroke-miterlimit:10;}.cls-1,.cls-5{stroke-width:10px;}.cls-2,.cls-3{stroke-width:5px;}.cls-2{stroke-dasharray:11.76 11.76;}.cls-4{fill:#555;}.cls-5,.cls-6,.cls-7{stroke-linecap:round;}.cls-5,.cls-6{stroke-linejoin:round;}.cls-6{stroke-width:8px;}.cls-7{stroke-width:3px;}</style></defs><circle class="cls-1" cx="766" cy="1193.92" r="156.37" transform="translate(-619.87 891.33) rotate(-45)"/><path class="cls-1" d="M789.93,1133.09a65.16,65.16,0,0,0-53,2.33l17.46,47.29L705.16,1170a65.37,65.37,0,1,0,84.77-36.88Z"/><path class="cls-1" d="M414.29,1174.35a27.24,27.24,0,0,0,0,39.13C463.54,1261.27,602.4,1380,766,1380s302.46-118.77,351.71-166.56a27.24,27.24,0,0,0,0-39.13c-49.25-47.79-188.11-166.56-351.71-166.56S463.54,1126.56,414.29,1174.35Z"/><circle class="cls-2" cx="766" cy="1193.92" r="126.02"/><polyline class="cls-3" points="734.41 616.78 733.41 948.84 532.69 948.84 447.69 1033.84 447.69 1144.05"/><polyline class="cls-3" points="766.99 616.78 766.99 616.78 765.99 955.72 831.37 955.72 867.59 991.93 867.59 1022.42"/><polyline class="cls-3" points="832.18 616.78 831.18 932.6 978.69 932.6 1070.31 1024.22 1070.31 1132.43"/><polyline class="cls-3" points="799.59 616.78 798.59 972.89 1056.86 972.89 1161.25 1077.28 1161.25 1238.84 1076.47 1323.62 972.18 1323.62"/><polyline class="cls-3" points="700.18 616.78 700.18 900.73 412.18 900.73 314.06 998.85 314.06 1286.29 402.28 1374.51 563.94 1374.51 563.94 1323.62"/><rect class="cls-1" x="5" y="5" width="1524" height="665" rx="332.5"/><path class="cls-4" d="M337.18,112.35a225.15,225.15,0,0,0-180.11,90.43l41.67-.65,207-3.23-27-45.13-24.27-40.56q-8.62-.75-17.3-.86Zm26.58,1.75,21.43,35.82L491.5,327.59l25.58-46L540,240.51A225.12,225.12,0,0,0,363.76,114.1ZM251.44,208.82l-52.59.82-47.21.73a224.06,224.06,0,0,0-21.29,215.94l20.38-36.6ZM544,248.76l-20.33,36.53L422.93,466.18l52.58-.82,47.22-.74A223.75,223.75,0,0,0,544,248.76Zm-361.1,98.65-25.58,46-22.95,41.2A225.18,225.18,0,0,0,310.66,561l-21.48-35.91ZM517.29,472.22l-41.66.65-207,3.23,27,45.13,24.2,40.45q8.65.81,17.36,1a225.15,225.15,0,0,0,180.11-90.43Zm0,0"/><path class="cls-5" d="M577.18,337.5c0,132.55-107.45,240-240,240s-240-107.45-240-240,107.45-240,240-240,240,107.45,240,240Zm0,0"/><path class="cls-4" d="M1197.09,112.35a225.2,225.2,0,0,0-125.17,38.21A478.94,478.94,0,0,1,1114.86,181,486.18,486.18,0,0,1,1239,329.29a479.17,479.17,0,0,0,45-142.35,470.07,470.07,0,0,0,4.93-54.67,225.11,225.11,0,0,0-91.9-19.92Zm99.31,23.24a477.78,477.78,0,0,1-4.92,52.46,486,486,0,0,1-66.31,181.67A478.9,478.9,0,0,0,1371,337.54a472.51,472.51,0,0,0,50-23.19,225.14,225.14,0,0,0-124.6-178.76Zm-231.1,19.7A225.17,225.17,0,0,0,971.94,337.5q.12,7.46.76,14.89a476.85,476.85,0,0,1,47.77-21.92A486,486,0,0,1,1211,297.07,478.62,478.62,0,0,0,1110.18,186.9a468.73,468.73,0,0,0-44.88-31.61Zm103.71,150a478.9,478.9,0,0,0-145.79,32.18,469.61,469.61,0,0,0-50,23.19,225.15,225.15,0,0,0,124.6,178.76A477.78,477.78,0,0,1,1102.7,487,486,486,0,0,1,1169,305.28Zm252.48,17.33a475.73,475.73,0,0,1-47.78,21.91,486,486,0,0,1-190.48,33.41A478.8,478.8,0,0,0,1284,488.1a471.13,471.13,0,0,0,44.94,31.64,225.18,225.18,0,0,0,93.31-182.24q-.13-7.46-.75-14.89Zm-266.35,23.1a478.69,478.69,0,0,0-45,142.35,470.07,470.07,0,0,0-4.93,54.67,223.47,223.47,0,0,0,217.14-18.25,477,477,0,0,1-43-30.51,486.16,486.16,0,0,1-124.18-148.26Zm0,0"/><path class="cls-6" d="M1437.09,337.5c0,132.55-107.45,240-240,240s-240-107.45-240-240,107.45-240,240-240,240,107.45,240,240Zm0,0"/><line class="cls-1" x1="862.99" y1="500.19" x2="891.7" y2="500.19"/><line class="cls-1" x1="891.7" y1="565.37" x2="862.99" y2="565.37"/><line class="cls-1" x1="862.99" y1="467.6" x2="891.7" y2="467.6"/><line class="cls-1" x1="862.99" y1="435" x2="891.7" y2="435"/><line class="cls-1" x1="641.3" y1="500.19" x2="670.01" y2="500.19"/><line class="cls-1" x1="641.3" y1="532.78" x2="670.01" y2="532.78"/><line class="cls-1" x1="670.01" y1="565.37" x2="641.3" y2="565.37"/><line class="cls-1" x1="641.3" y1="467.6" x2="670.01" y2="467.6"/><line class="cls-1" x1="641.3" y1="435" x2="670.01" y2="435"/><line class="cls-1" x1="767" y1="624.89" x2="767" y2="596.18"/><line class="cls-1" x1="734.41" y1="624.89" x2="734.41" y2="596.18"/><line class="cls-1" x1="701.82" y1="596.18" x2="701.82" y2="624.89"/><line class="cls-1" x1="799.59" y1="596.18" x2="799.59" y2="624.89"/><line class="cls-1" x1="832.18" y1="596.18" x2="832.18" y2="624.89"/><line class="cls-1" x1="862.99" y1="532.85" x2="891.7" y2="532.78"/><path class="cls-1" d="M828.64,401.84H705.36a9.79,9.79,0,0,0-6.93,2.87l-26.91,26.91a9.79,9.79,0,0,0-2.87,6.93V561.82a9.82,9.82,0,0,0,2.87,6.94l26.91,26.91a9.84,9.84,0,0,0,6.93,2.87H828.64a9.84,9.84,0,0,0,6.93-2.87l26.91-26.91a9.82,9.82,0,0,0,2.87-6.94V438.55a9.79,9.79,0,0,0-2.87-6.93l-26.91-26.91A9.79,9.79,0,0,0,828.64,401.84Z"/><path class="cls-4" d="M814.28,424.75H719.72a7.53,7.53,0,0,0-5.32,2.2l-20.64,20.64a7.53,7.53,0,0,0-2.2,5.32v94.56a7.51,7.51,0,0,0,2.2,5.31l20.64,20.64a7.54,7.54,0,0,0,5.32,2.21h94.56a7.54,7.54,0,0,0,5.32-2.21l20.64-20.64a7.51,7.51,0,0,0,2.2-5.31V452.91a7.53,7.53,0,0,0-2.2-5.32L819.6,427A7.53,7.53,0,0,0,814.28,424.75Z"/><polyline class="cls-3" points="647.26 565.37 537.15 565.37 488.74 613.78 215.29 613.78 163.07 561.56 163.07 504.45"/><polyline class="cls-3" points="647.26 532.78 577.18 532.78 577.18 635.34 302.29 635.34 262.73 595.77 262.73 566.84"/><polyline class="cls-3" points="647.26 500.19 546.29 500.19 459.22 587.26 392.95 587.26 392.95 570.98"/><polyline class="cls-3" points="647.26 467.6 602.79 467.6 602.79 145.84 515.29 58.34 222.5 58.34 161.36 119.48 161.36 174.14"/><polyline class="cls-3" points="647.26 435 626.09 435 626.09 112.35 589.18 75.44 418.79 75.44 418.79 111.74"/><polyline class="cls-3" points="883.03 565.37 957.09 565.37 981.67 589.96 1134.79 589.96 1134.79 569.34"/><polyline class="cls-3" points="883.03 435 934.56 435 934.56 128.84 980.18 83.22 1316.79 83.22 1316.79 129.44"/><polyline class="cls-3" points="883.03 467.6 914.79 467.6 914.79 176.25 976.5 114.54 1109.21 114.54"/><polyline class="cls-3" points="883.03 532.78 996.12 532.78 1096.71 633.37 1295.5 633.37 1380.54 548.33 1380.54 492.25"/><polyline class="cls-3" points="883.03 500.19 926.76 500.19 1037 610.42 1246.5 610.42 1246.5 572.41"/><line class="cls-1" x1="767" y1="405.74" x2="767" y2="377.02"/><line class="cls-1" x1="734.41" y1="405.74" x2="734.41" y2="377.02"/><line class="cls-1" x1="701.82" y1="377.02" x2="701.82" y2="405.74"/><line class="cls-1" x1="799.59" y1="377.02" x2="799.59" y2="405.74"/><line class="cls-1" x1="832.18" y1="377.02" x2="832.18" y2="405.74"/><polyline class="cls-3" points="701.82 385.44 701.82 126.44 718.02 110.24 731 110.24"/><polyline class="cls-3" points="734.41 385.44 734.41 177.91 747.54 164.78"/><polyline class="cls-3" points="799.59 385.44 799.59 178.29 824.67 153.21 824.67 48.29 801.75 48.29 788.09 61.95"/><polyline class="cls-3" points="832.18 385.44 832.18 182.29 799.71 149.82"/><polyline class="cls-3" points="767 385.44 767 250.85 677.1 160.95 677.1 68.26 699.44 45.92 742 45.92 742 65.27"/><rect class="cls-1" x="731" y="55.29" width="72" height="115" rx="36"/><line class="cls-7" x1="742.03" y1="86.22" x2="762.98" y2="65.27"/><line class="cls-7" x1="740" y1="108.29" x2="780.5" y2="67.79"/><line class="cls-7" x1="739.03" y1="127.44" x2="790.59" y2="75.88"/><line class="cls-7" x1="742" y1="143.29" x2="794.48" y2="90.81"/><line class="cls-7" x1="752" y1="153.29" x2="793" y2="112.29"/><line class="cls-7" x1="766.24" y1="159.5" x2="793.72" y2="132.02"/></svg>