<?xml version="1.0" encoding="UTF-8"?><svg id="a" xmlns="http://www.w3.org/2000/svg" viewBox="0 0 2846.78 2380.12"><defs><style>.b{fill:none;stroke:#333;stroke-linecap:round;stroke-linejoin:round;stroke-width:46.78px;}</style></defs><line class="b" x1="560.06" y1="23.39" x2="2053.39" y2="23.39"/><path class="b" d="M2426.73,23.39h339.33c31.67,0,57.34,25.67,57.34,57.34V1739.39c0,31.67-25.67,57.34-57.34,57.34H80.73c-31.67,0-57.34-25.67-57.34-57.34V80.73c0-31.67,25.67-57.34,57.34-57.34H443.39"/><line class="b" x1="2170.06" y1="23.39" x2="2333.39" y2="23.39"/><line class="b" x1="1082.67" y1="2048.57" x2="1024.96" y2="2216.73"/><line class="b" x1="1170.73" y1="1796.73" x2="1109.03" y2="1971.31"/><line class="b" x1="1607.38" y1="1796.73" x2="1751.19" y2="2216.73"/><path class="b" d="M1586.73,2216.73h223.65c44.01,0,79.68,35.67,79.68,79.68v60.32"/><path class="b" d="M886.73,2333.39v-36.99c0-44.01,35.67-79.68,79.68-79.68h526.99"/><line class="b" x1="2240.06" y1="1586.73" x2="2823.39" y2="1586.73"/><line class="b" x1="1913.39" y1="1586.73" x2="2146.73" y2="1586.73"/><line class="b" x1="23.39" y1="1586.73" x2="1796.73" y2="1586.73"/><g><polyline class="b" points="1725.71 594.31 1890.06 540.48 1449.91 395.92 1003.39 540.48 1446.73 700.06 1641.74 626.65"/><polyline class="b" points="1890.06 540.48 1890.06 1051.92 1446.73 1236.73 1003.39 1051.92 1003.39 540.48"/><line class="b" x1="1446.73" y1="700.06" x2="1446.73" y2="1236.73"/></g><g><rect class="b" x="2260.96" y="440.39" width="196.63" height="465.74" transform="translate(1167.09 -1471.07) rotate(45)"/><line class="b" x1="2523.95" y1="508.6" x2="2298.16" y2="734.39"/><polyline class="b" points="2125.1 768.41 2030.73 1001.82 2264.14 907.45"/><path class="b" d="M2454.43,439.08l81.8-81.8c23.45-23.45,61.46-23.45,84.9,0l54.14,54.14c23.45,23.45,23.45,61.46,0,84.9l-81.8,81.8"/></g><g><polyline class="b" points="768.29 753.06 850.39 943.01 752.38 1041.02 363.8 873.07 283.66 647.15 456.52 474.29 682.44 554.43 739.99 687.58"/><circle class="b" cx="513.39" cy="700.06" r="70"/><line class="b" x1="800.35" y1="993.05" x2="558.83" y2="751.52"/><line class="b" x1="148.49" y1="548" x2="283.66" y2="647.15"/><line class="b" x1="456.52" y1="474.29" x2="354.93" y2="341.56"/></g><polyline class="b" points="2076.73 1213.39 2076.73 1376.73 1936.73 1376.73"/><polyline class="b" points="1913.39 256.73 2076.73 256.73 2076.73 396.73"/><polyline class="b" points="816.73 396.73 816.73 256.73 956.73 256.73"/><polyline class="b" points="980.06 1376.73 816.73 1376.73 816.73 1213.39"/></svg>