<svg height="512pt" viewBox="0 0 512 512" width="512pt" xmlns="http://www.w3.org/2000/svg"><path d="m72 72h16v32h-16zm0 0"/><path d="m72 136h16v32h-16zm0 0"/><path d="m32 112h32v16h-32zm0 0"/><path d="m96 112h32v16h-32zm0 0"/><path d="m448 176h16v16h-16zm0 0"/><path d="m448 144h16v16h-16zm0 0"/><path d="m432 160h16v16h-16zm0 0"/><path d="m464 160h16v16h-16zm0 0"/><path d="m428.417969 240.847656 16-8 7.15625 14.3125-16 7.996094zm0 0"/><path d="m52.425781 255.152344 7.152344-14.308594 16 8-7.15625 14.308594zm0 0"/><path d="m344.167969 269.664062-11.320313-11.328124c2.023438-2.011719 3.160156-4.746094 3.160156-7.601563 0-2.851563-1.136718-5.585937-3.160156-7.597656-4.246094-4.082031-10.953125-4.082031-15.199218 0l-11.328126-11.320313c10.585938-10.101562 27.246094-10.101562 37.832032 0 10.441406 10.449219 10.441406 27.382813 0 37.832032zm0 0"/><path d="m488 32h-24v16h24c4.417969 0 8 3.582031 8 8v232h-85.457031c12.253906-25.613281 3.296875-56.339844-20.800781-71.359375 5.09375-18.984375 1.175781-39.257813-10.617188-54.980469-11.796875-15.722656-30.160156-25.15625-49.8125-25.582031-12.683594-29.191406-41.480469-48.074219-73.308594-48.074219s-60.625 18.882813-73.308594 48.074219c-19.652343.425781-38.019531 9.855469-49.816406 25.578125s-15.714844 35.996094-10.621094 54.984375c-24.097656 15.019531-33.054687 45.746094-20.800781 71.359375h-85.457031v-232c0-4.417969 3.582031-8 8-8h24v-16h-24c-13.253906 0-24 10.746094-24 24v320c0 13.253906 10.746094 24 24 24h168v40c0 13.253906-10.746094 24-24 24h-40v48h256v-48h-40c-13.253906 0-24-10.746094-24-24v-40h168c13.253906 0 24-10.746094 24-24v-320c0-13.253906-10.746094-24-24-24zm-336 192v-16c-5.054688.011719-10.082031.714844-14.945312 2.089844-2.734376-13.0625.066406-26.671875 7.738281-37.589844 7.671875-10.914062 19.527343-18.164062 32.742187-20.011719-1.015625 5.109375-1.53125 10.304688-1.535156 15.511719h16c0-35.347656 28.652344-64 64-64s64 28.652344 64 64h16c-.003906-5.214844-.519531-10.414062-1.535156-15.527344 13.210937 1.855469 25.0625 9.101563 32.734375 20.015625 7.671875 10.917969 10.476562 24.523438 7.746093 37.582031-4.863281-1.367187-9.894531-2.0625-14.945312-2.070312v16c22.082031.027344 39.972656 17.917969 40 40-.039062 8.695312-2.949219 17.132812-8.28125 24h-271.4375c-5.332031-6.867188-8.242188-15.304688-8.28125-24 .027344-22.082031 17.917969-39.972656 40-40zm216 256v16h-224v-16zm-112-31.664062c13.253906 0 24-10.746094 24-24v-24.335938h24v40c.03125 8.683594 2.914062 17.117188 8.207031 24h-112.414062c5.292969-6.882812 8.175781-15.316406 8.207031-24v-40h24v24.335938c0 13.253906 10.746094 24 24 24zm-8-24v-24.335938h16v24.335938c0 4.417968-3.582031 8-8 8s-8-3.582032-8-8zm248-48.335938c0 4.417969-3.582031 8-8 8h-464c-4.417969 0-8-3.582031-8-8v-72h480zm0 0"/><path d="m280 320h-48v48h48zm-16 32h-16v-16h16zm0 0"/><path d="m197.886719 258.34375c-7.855469-7.859375-7.855469-20.597656 0-28.457031 7.859375-7.855469 20.597656-7.855469 28.457031 0l11.3125-11.3125c-3.703125-3.671875-8.167969-6.492188-13.082031-8.253907 3.101562-16.136718 17.917969-27.304687 34.28125-25.839843 16.367187 1.464843 28.960937 15.089843 29.144531 31.519531h16c-.175781-24.886719-19.347656-45.511719-44.15625-47.503906-24.808594-1.992188-47.023438 15.308594-51.171875 39.847656-8.335937.722656-16.152344 4.34375-22.097656 10.230469-14.078125 14.117187-14.078125 36.964843 0 51.082031zm0 0"/><path d="m392 8h16v32h-16zm0 0"/><path d="m392 72h16v32h-16zm0 0"/><path d="m352 48h32v16h-32zm0 0"/><path d="m416 48h32v16h-32zm0 0"/><path d="m96 32h16v16h-16zm0 0"/><path d="m96 0h16v16h-16zm0 0"/><path d="m80 16h16v16h-16zm0 0"/><path d="m112 16h16v16h-16zm0 0"/><path d="m338.347656 114.335938 32-32 11.3125 11.3125-32 32.003906zm0 0"/><path d="m240 32h16v40h-16zm0 0"/><path d="m240 0h16v16h-16zm0 0"/><path d="m410.347656 202.34375 15.996094-16 11.316406 11.3125-16 16zm0 0"/><path d="m122.34375 53.65625 11.3125-11.316406 55.996094 56-11.3125 11.3125zm0 0"/><path d="m51.199219 198.398438 9.601562-12.796876 32 24-9.601562 12.796876zm0 0"/><path d="m288.410156 69.46875 8-23.996094 15.179688 5.0625-8.003906 23.996094zm0 0"/></svg>