<svg version="1.1" viewBox="0 0 120 120" xmlns="http://www.w3.org/2000/svg">
 <g transform="translate(-41.097 -32.586)">
  <rect x="41.097" y="32.586" width="120" height="120" opacity="0" stroke-width="1.0091"/>
  <g transform="matrix(.55 0 0 .55 42.488 37.476)" fill="#2867b2">
   <path d="m16.843 199.45c-3.4009-1.0792-6.0536-3.1162-7.9924-6.1376-2.4464-3.8123-2.2879 2.6401-2.2879-93.153 0-77.321 0.064132-87.191 0.57937-89.169 1.0745-4.1253 4.0105-7.6125 7.9738-9.4709l2.1009-0.9851h178.69l2.1009 0.9851c3.9634 1.8584 6.8993 5.3455 7.9738 9.4709 0.51524 1.9781 0.57937 11.848 0.57937 89.169 0 77.321-0.0642 87.191-0.57937 89.169-1.0745 4.1253-4.0105 7.6125-7.9738 9.4709l-2.1009 0.9851-88.784 0.07c-70.867 0.0558-89.086-0.0257-90.279-0.40445zm49.158-76.487v-47.85h-29.906v95.7h29.906zm48.225 22.149c7.4e-4 -16.089 0.1522-26.959 0.40521-29.065 0.80425-6.695 3.2072-11.697 6.8012-14.157 3.2733-2.241 4.7198-2.6165 10.176-2.6421 4.5948-0.0215 4.9874 0.03618 7.2006 1.0583 3.6983 1.708 6.0729 4.9039 7.4546 10.033 0.55762 2.07 0.6555 5.7255 0.83845 31.315l0.20713 28.972 29.719 0.1956v-30.033c0-18.463-0.1535-31.606-0.39858-34.116-1.1912-12.204-4.1672-19.77-10.087-25.644-5.0066-4.9678-11.275-7.3939-21.174-8.1944-13.261-1.0725-23.655 3.3323-30.435 12.898l-1.8301 2.582v-13.201h-28.785v95.7h29.906l1e-3 -25.701zm-57.859-83.86c4.7334-1.5946 8.0391-4.5596 10.283-9.2232 3.0617-6.3642 1.6554-14.218-3.4624-19.335-3.6358-3.6358-8.1498-5.2948-13.499-4.9611-6.1851 0.38588-11.481 4.0562-14.242 9.8699-2.9373 6.1851-1.8512 13.672 2.721 18.758 3.3888 3.7691 7.5705 5.6145 12.799 5.6485 2.1888 0.01417 3.7711-0.20736 5.4003-0.75621z" fill="#2867b2" stroke-width=".37383"/>
  </g>
 </g>
</svg>
