<svg width="31.75mm" height="31.75mm" version="1.1" viewBox="0 0 31.75 31.75" xmlns="http://www.w3.org/2000/svg">
 <g transform="translate(-37.659 -56.947)">
  <rect x="37.659" y="56.947" width="31.75" height="31.75" opacity="0" stroke-width=".29127"/>
  <g transform="matrix(1.1 0 0 1.1 -5.9829 -4.4284)" fill="#1b1817">
   <path d="m54.106 57.326c-7.3053 0-13.229 5.9225-13.229 13.229 0 5.8448 3.7906 10.804 9.0469 12.553 0.66115 0.12246 0.90388-0.28698 0.90388-0.63639 0-0.31525-0.0123-1.3576-0.0179-2.463-3.6804 0.80026-4.457-1.5609-4.457-1.5609-0.60179-1.5289-1.4689-1.9357-1.4689-1.9357-1.2003-0.82107 0.0905-0.8042 0.0905-0.8042 1.3284 0.0933 2.0279 1.3635 2.0279 1.3635 1.1799 2.0222 3.0948 1.4375 3.8497 1.0995 0.11895-0.8548 0.46158-1.4386 0.83991-1.769-2.9384-0.3343-6.0272-1.4689-6.0272-6.5379 0-1.4441 0.51679-2.6244 1.363-3.5509-0.13736-0.3332-0.59018-1.6787 0.12838-3.501 0 0 1.1109-0.35532 3.6387 1.3563 1.0552-0.29311 2.187-0.44011 3.3112-0.44537 1.1243 5e-3 2.2568 0.15226 3.3141 0.44537 2.525-1.7116 3.6344-1.3563 3.6344-1.3563 0.72008 1.8222 0.26726 3.1678 0.1299 3.501 0.84824 0.92644 1.3613 2.1068 1.3613 3.5509 0 5.0813-3.0948 6.1999-6.0406 6.5274 0.4745 0.41054 0.89731 1.2156 0.89731 2.4499 0 1.7701-0.0151 3.1947-0.0151 3.6304 0 0.35226 0.2379 0.76455 0.90847 0.63486 5.2537-1.7512 9.0394-6.7083 9.0394-12.551 0-7.3066-5.923-13.229-13.229-13.229" fill-rule="evenodd"/>
   <g>
    <path d="m45.887 76.32c-0.0291 0.0659-0.13253 0.0857-0.22673 0.0405-0.0962-0.0434-0.14984-0.13297-0.11874-0.19891 0.0285-0.0675 0.13188-0.0863 0.22783-0.0412 0.096 0.0432 0.15072 0.13363 0.11764 0.19957"/>
    <path d="m46.423 76.917c-0.0631 0.0585-0.18665 0.0313-0.27011-0.0611-0.0867-0.0922-0.10275-0.21578-0.0387-0.27493 0.0651-0.0585 0.18468-0.0311 0.27121 0.0611 0.0868 0.0933 0.10362 0.21556 0.0377 0.27493"/>
    <path d="m46.945 77.679c-0.081 0.0565-0.21381 4e-3 -0.29574-0.11392-0.0811-0.11786-0.0811-0.25894 2e-3 -0.31546 0.0819-0.0565 0.21271-6e-3 0.29574 0.11107 0.0808 0.11961 0.0808 0.26069-2e-3 0.31831"/>
    <path d="m47.66 78.415c-0.0725 0.08-0.22695 0.0585-0.33999-0.0508-0.11567-0.10647-0.14788-0.25785-0.0754-0.33781 0.0736-0.0802 0.22893-0.0576 0.34284 0.0506 0.1148 0.10647 0.14963 0.25894 0.0725 0.33802"/>
    <path d="m48.645 78.843c-0.0322 0.10362-0.18074 0.1505-0.33058 0.10647-0.14962-0.0453-0.24755-0.16649-0.21732-0.27121 0.0311-0.10427 0.18052-0.15334 0.33146-0.10625 0.1494 0.0452 0.24754 0.16562 0.21644 0.27099"/>
    <path d="m49.728 78.922c4e-3 0.1091-0.12333 0.19957-0.28063 0.20155-0.15816 4e-3 -0.28632-0.0848-0.28807-0.19213 0-0.11019 0.12443-0.19957 0.28238-0.20242 0.15729-3e-3 0.28632 0.0848 0.28632 0.193"/>
    <path d="m50.735 78.75c0.0188 0.10625-0.0905 0.21556-0.24667 0.2447-0.15356 0.0283-0.29574-0.0377-0.31524-0.14305-0.0191-0.10909 0.092-0.21841 0.24558-0.24667 0.15641-0.0271 0.2964 0.0368 0.31633 0.14502"/>
   </g>
  </g>
 </g>
</svg>
