<svg width="29.104mm" height="29.104mm" version="1.1" viewBox="0 0 29.104 29.104" xmlns="http://www.w3.org/2000/svg">
 <g transform="translate(-38.207 -56.35)">
  <rect x="38.207" y="56.35" width="29.104" height="29.104" opacity="0" stroke-width=".267"/>
  <path d="m52.758 58c-7.3052 0-13.228 5.9229-13.228 13.23 0 5.8449 3.7902 10.803 9.0472 12.553 0.66189 0.121 0.90309-0.28749 0.90309-0.63834 0-0.31349-0.01125-1.1459-0.01795-2.2496-3.6798 0.79914-4.4562-1.7737-4.4562-1.7737-0.60179-1.5276-1.4692-1.9345-1.4692-1.9345-1.2011-0.82107 0.09095-0.80482 0.09095-0.80482 1.3278 0.0942 2.0263 1.3636 2.0263 1.3636 1.18 2.0214 3.0967 1.4375 3.8503 1.0996 0.12019-0.85518 0.46129-1.4383 0.83975-1.7688-2.9375-0.33379-6.026-1.4692-6.026-6.5385 0-1.444 0.5157-2.6248 1.362-3.5498-0.13644-0.3346-0.59042-1.6795 0.12912-3.5011 0 0 1.111-0.35572 3.6384 1.3563 1.055-0.29318 2.1871-0.44018 3.3119-0.44505 1.1232 0.0048 2.2553 0.15188 3.3119 0.44505 2.5257-1.712 3.6343-1.3563 3.6343-1.3563 0.72199 1.8216 0.268 3.1665 0.13156 3.5011 0.84787 0.92502 1.3603 2.1059 1.3603 3.5498 0 5.0823-3.0934 6.2006-6.0407 6.5279 0.4751 0.4085 0.89822 1.2158 0.89822 2.4502 0 1.768-0.01634 3.1949-0.01634 3.6286 0 0.35409 0.23796 0.76584 0.90959 0.63671 5.2529-1.7534 9.0399-6.7082 9.0399-12.552 0-7.3068-5.9237-13.23-13.23-13.23" fill="#1b1817" fill-rule="evenodd"/>
 </g>
</svg>
