<?xml version="1.0" encoding="iso-8859-1"?>
<!-- Generator: Adobe Illustrator 19.0.0, SVG Export Plug-In . SVG Version: 6.00 Build 0)  -->
<svg version="1.1" id="Capa_1" xmlns="http://www.w3.org/2000/svg" xmlns:xlink="http://www.w3.org/1999/xlink" x="0px" y="0px"
	 viewBox="0 0 512 512" style="enable-background:new 0 0 512 512;" xml:space="preserve">
<g>
	<g>
		<path d="M476.74,110.272H124.961c-4.16,0-7.531,3.371-7.531,7.531c0,4.16,3.371,7.531,7.531,7.531H476.74
			c11.137,0,20.198,9.062,20.198,20.199v127.874c0,11.138-9.061,20.198-20.198,20.198h-57.066c-4.16,0-7.531,3.371-7.531,7.531
			c0,4.16,3.371,7.531,7.531,7.531h57.066c19.442,0,35.26-15.818,35.26-35.26V145.534C512,126.09,496.182,110.272,476.74,110.272z"
			/>
	</g>
</g>
<g>
	<g>
		<path d="M110.208,170.03c-21.747,0-39.44,17.693-39.44,39.44s17.693,39.439,39.44,39.439s39.439-17.692,39.439-39.439
			C149.647,187.723,131.955,170.03,110.208,170.03z M110.208,233.848c-13.442,0-24.378-10.936-24.378-24.377
			c0-13.442,10.936-24.378,24.378-24.378c13.441,0,24.377,10.936,24.377,24.378C134.585,222.912,123.649,233.848,110.208,233.848z"
			/>
	</g>
</g>
<g>
	<g>
		<path d="M218.779,170.031c-21.747,0-39.439,17.693-39.439,39.44c0,21.747,17.692,39.439,39.439,39.439
			s39.439-17.693,39.439-39.439C258.218,187.724,240.526,170.031,218.779,170.031z M218.78,233.848
			c-13.441,0-24.377-10.936-24.377-24.377c0-13.442,10.936-24.378,24.377-24.378c13.441,0,24.377,10.936,24.377,24.378
			C243.157,222.912,232.221,233.848,218.78,233.848z"/>
	</g>
</g>
<g>
	<g>
		<path d="M327.351,170.031c-21.747,0-39.439,17.693-39.439,39.44c0,21.747,17.692,39.439,39.439,39.439s39.44-17.693,39.44-39.439
			C366.791,187.724,349.098,170.031,327.351,170.031z M327.352,233.848c-13.442-0.001-24.377-10.936-24.377-24.377
			c0-13.442,10.936-24.378,24.377-24.378c13.442,0,24.378,10.936,24.378,24.378C351.73,222.912,340.794,233.848,327.352,233.848z"/>
	</g>
</g>
<g>
	<g>
		<circle cx="415.68" cy="209.47" r="18.02"/>
	</g>
</g>
<g>
	<g>
		<path d="M366.204,293.606H35.26c-11.138,0-20.198-9.061-20.198-20.198V145.534c0-11.138,9.061-20.199,20.198-20.199h35.477
			c4.16,0,7.531-3.371,7.531-7.531c0-4.16-3.371-7.531-7.531-7.531H35.26C15.818,110.272,0,126.09,0,145.534v127.874
			c0,19.442,15.818,35.26,35.26,35.26h179.034v42.101h-52.637c-8.608,0-15.61,7.002-15.61,15.61v19.739
			c0,8.608,7.002,15.61,15.61,15.61h188.685c8.608,0,15.61-7.002,15.61-15.61v-19.739c0-8.608-7.002-15.61-15.61-15.61h-52.636
			v-42.101h68.498c4.16,0,7.531-3.371,7.531-7.531C373.735,296.977,370.363,293.606,366.204,293.606z M229.356,309.36h53.288v41.409
			h-53.288V309.36z M350.342,365.831c0.302,0,0.548,0.246,0.548,0.548v19.739c0,0.302-0.246,0.548-0.548,0.548H161.658
			c-0.302,0-0.548-0.246-0.548-0.548v-19.739c0-0.302,0.246-0.548,0.548-0.548h60.168h68.35H350.342z"/>
	</g>
</g>
<g>
</g>
<g>
</g>
<g>
</g>
<g>
</g>
<g>
</g>
<g>
</g>
<g>
</g>
<g>
</g>
<g>
</g>
<g>
</g>
<g>
</g>
<g>
</g>
<g>
</g>
<g>
</g>
<g>
</g>
</svg>
