<svg width="120mm" height="120mm" version="1.1" viewBox="0 0 120 120" xmlns="http://www.w3.org/2000/svg">
 <g transform="translate(-46.201 -85.025)">
  <g transform="matrix(1.784 0 0 1.2921 40.195 7.3373)" style="shape-inside:url(#rect841-8);white-space:pre" aria-label="GC">
   <path d="m20.564 105.67h14.532v19.468q-2.3992 2.3307-5.9638 3.9073-3.496 1.5081-8.0202 1.5081-3.496 0-6.3065-0.95969-2.742-1.0282-4.6613-2.8105-1.9194-1.8508-2.9476-4.3871-1.0282-2.5363-1.0282-5.621v-20.428q0-3.3589 1.2339-5.8952 1.2339-2.6049 3.2904-4.3186 2.0565-1.7823 4.7299-2.6734 2.742-0.89114 5.6896-0.89114 4.3871 0 7.4718 1.7137 3.1533 1.7137 5.1412 4.5928l-3.3589 3.496q-1.7823-2.3307-4.25-3.6331-2.3992-1.371-5.0041-1.371-2.2621 0-4.0444 0.68549t-3.0847 1.9194-1.9879 2.8791-0.68549 3.496v20.428q0 2.3307 0.75404 4.0444 0.82259 1.7137 2.125 2.8105 1.371 1.0968 3.1533 1.6452 1.7823 0.47985 3.7702 0.47985 3.496 0 5.3468-0.68549t3.496-2.0565v-12.887h-9.3912z" fill="#231f20"/>
   <path d="m55.078 87.368q-2.2621 0-3.9758 0.68549-1.6452 0.61694-2.742 1.7823t-1.6452 2.742-0.54839 3.4274v21.25q0 4.5928 2.3992 6.5807 2.3992 1.9194 6.5122 1.9194 3.3589 0 5.5525-1.0968 2.1936-1.1653 3.9758-3.1532l3.1533 3.7702q-2.6049 2.742-5.8267 4.0444-3.1533 1.2339-6.8549 1.2339-7.1976 0-10.694-3.5646-3.4274-3.6331-3.4274-9.734v-21.25q0-3.2904 1.0282-5.7581 1.0968-2.5363 2.9476-4.1815 1.9194-1.7137 4.5242-2.6049t5.621-0.89114q4.5928 0 7.6775 1.7823 3.0847 1.7137 5.0726 4.7299l-3.496 3.496q-1.5081-2.2621-3.9073-3.7016-2.3992-1.5081-5.3468-1.5081z" fill="#ee1c25"/>
  </g>
  <path d="m46.201 85.025h120v120h-120z" opacity="0" stroke-width=".92013"/>
  <text fill="black" font-family="'Agency FB'" font-size="10.583px" letter-spacing="0px" word-spacing="0px" style="line-height:1.25;shape-inside:url(#rect69);white-space:pre" xml:space="preserve"/>
 </g>
</svg>
