<svg width="120mm" height="120mm" version="1.1" viewBox="0 0 120 120" xmlns="http://www.w3.org/2000/svg">
 <g transform="translate(-46.201 -85.025)">
  <g transform="matrix(1.4601 0 0 1.0039 43.106 64.27)" style="shape-inside:url(#rect841-8);white-space:pre" aria-label="GRABCAD">
   <g fill="#231f20">
    <path d="m9.262 88.96q-2.1591 0-3.4319-1.25-1.2727-1.25-1.2727-3.3864v-7.7728q0-2.1364 1.2727-3.3864 1.2727-1.25 3.4319-1.25 2.1591 0 3.4319 1.2955 1.2955 1.2955 1.2955 3.4773h-1.5q0-1.6137-0.86364-2.5228t-2.3637-0.9091q-1.4773 0-2.3409 0.88637-0.86364 0.86364-0.86364 2.4091v7.7728q0 1.5455 0.84092 2.4318 0.86364 0.86364 2.3637 0.86364 1.5227 0 2.3637-0.9091 0.86364-0.9091 0.86364-2.5228v-2.3182h-3.7046v-1.3636h5.2046v3.6819q0 2.1818-1.2955 3.4773-1.2727 1.2955-3.4319 1.2955z"/>
    <path d="m15.942 88.733v-16.591h4.841q2.2046 0 3.5228 1.2727t1.3182 3.3864q0 1.7727-0.95456 2.9773-0.95456 1.1818-2.6137 1.5227l3.7273 7.4319h-1.7727l-3.5228-7.3183h-3.0455v7.3183zm1.5-8.6592h3.3409q1.5 0 2.4091-0.88637 0.9091-0.9091 0.9091-2.4091t-0.9091-2.3864q-0.9091-0.88637-2.4091-0.88637h-3.3409z"/>
    <path d="m26.259 88.733 4.4546-16.591h1.9546l4.4546 16.591h-1.5227l-1.2046-4.6364h-5.4319l-1.1818 4.6364zm3.0455-5.9319h4.75l-1.5909-6.0682q-0.34091-1.3182-0.54546-2.2046-0.18182-0.88637-0.22728-1.1591-0.04546 0.27273-0.25 1.1591-0.20455 0.88637-0.54546 2.2046z"/>
    <path d="m38.485 88.733v-16.591h4.4546q2.1364 0 3.3864 1.1591 1.2727 1.1591 1.2727 3.1137 0 1.4318-0.68182 2.4091-0.6591 0.95456-1.8637 1.2727 1.3636 0.34091 2.1591 1.4091 0.79546 1.0455 0.79546 2.6591 0 2.0909-1.3182 3.3409-1.3182 1.2273-3.5682 1.2273zm1.4773-9.2274h2.9546q1.5 0 2.3409-0.79546 0.84092-0.81819 0.84092-2.2046 0-1.4091-0.84092-2.2046-0.84092-0.79546-2.3182-0.79546h-2.9773zm0 7.8637h3.0682q1.6137 0 2.5455-0.86364 0.93183-0.86364 0.93183-2.3637 0-1.5227-0.93183-2.4091-0.93183-0.9091-2.5455-0.9091h-3.0682z"/>
   </g>
   <g fill="#ee1c25">
    <path d="m54.325 88.96q-2.3409 0-3.7273-1.2955-1.3636-1.3182-1.3636-3.5455v-7.3637q0-2.25 1.3636-3.5455 1.3864-1.2955 3.7273-1.2955 2.3182 0 3.6819 1.3182 1.3864 1.2955 1.3864 3.5228h-2.4546q0-1.2955-0.70455-1.9773-0.68182-0.68182-1.9091-0.68182-1.25 0-1.9546 0.68182-0.68182 0.68182-0.68182 1.9546v7.3864q0 1.2955 0.68182 1.9773 0.70455 0.68182 1.9546 0.68182 1.2273 0 1.9091-0.68182 0.70455-0.68182 0.70455-1.9773h2.4546q0 2.2273-1.3864 3.5455-1.3636 1.2955-3.6819 1.2955z"/>
    <path d="m59.664 88.733 4.2273-16.591h3.2273l4.25 16.591h-2.5l-1-4.2046h-4.7046l-1 4.2046zm3.9546-6.2501h3.7728l-1.1364-4.7728q-0.29546-1.2727-0.5-2.2046-0.18182-0.93183-0.25-1.2955-0.06818 0.36364-0.25 1.2955-0.18182 0.93183-0.5 2.1818z"/>
    <path d="m71.845 88.733v-16.591h4.6364q1.6364 0 2.8409 0.63637 1.2046 0.61364 1.8637 1.7727 0.68182 1.1364 0.68182 2.6591v6.4092q0 1.5682-0.68182 2.7046-0.6591 1.1364-1.8637 1.7727-1.2046 0.63637-2.8409 0.63637zm2.4546-2.2273h2.1818q1.3636 0 2.1364-0.75001 0.79546-0.77274 0.79546-2.1364v-6.4092q0-1.3182-0.79546-2.0682-0.77274-0.77274-2.1364-0.77274h-2.1818z"/>
   </g>
  </g>
  <path d="m46.201 85.025h120v120h-120z" opacity="0" stroke-width=".92013"/>
  <text fill="black" font-family="'Agency FB'" font-size="10.583px" letter-spacing="0px" word-spacing="0px" style="line-height:1.25;shape-inside:url(#rect36);white-space:pre" xml:space="preserve"/>
 </g>
</svg>
